<svg class="animated" id="freepik_stories-chakras" xmlns="http://www.w3.org/2000/svg" viewBox="0 0 500 500" version="1.1" xmlns:xlink="http://www.w3.org/1999/xlink" xmlns:svgjs="http://svgjs.com/svgjs"><style>svg#freepik_stories-chakras:not(.animated) .animable {opacity: 0;}svg#freepik_stories-chakras.animated #freepik--Chakras--inject-209 {animation: 1.5s Infinite  linear floating;animation-delay: 0s;}            @keyframes floating {                0% {                    opacity: 1;                    transform: translateY(0px);                }                50% {                    transform: translateY(-10px);                }                100% {                    opacity: 1;                    transform: translateY(0px);                }            }        </style><g id="freepik--background-simple--inject-209" class="animable" style="transform-origin: 251.282px 253.482px;"><path d="M453.08,248.23a235.35,235.35,0,0,0-2.77-57,192,192,0,0,0-15.72-48.75C397.36,64.74,309.06,14.88,223.25,32.17c-47.34,9.54-105.31,42.68-120.31,91.59-10.61,34.59-6.13,72.44-23,105.29C62.59,262.89,45,292.86,49.6,332.74c4.91,42.72,33.84,80,69.88,103.46,44.74,29.09,103.75,45.22,157,41.49C381.15,470.35,446.31,351.05,453.08,248.23Z" style="fill: rgb(146, 227, 169); transform-origin: 251.282px 253.482px;" id="elohir460u5od" class="animable"></path><g id="elis8xqrjtnpa"><path d="M453.08,248.23a235.35,235.35,0,0,0-2.77-57,192,192,0,0,0-15.72-48.75C397.36,64.74,309.06,14.88,223.25,32.17c-47.34,9.54-105.31,42.68-120.31,91.59-10.61,34.59-6.13,72.44-23,105.29C62.59,262.89,45,292.86,49.6,332.74c4.91,42.72,33.84,80,69.88,103.46,44.74,29.09,103.75,45.22,157,41.49C381.15,470.35,446.31,351.05,453.08,248.23Z" style="fill: rgb(255, 255, 255); opacity: 0.8; transform-origin: 251.282px 253.482px;" class="animable"></path></g></g><g id="freepik--Shadow--inject-209" class="animable" style="transform-origin: 254.5px 450.5px;"><ellipse cx="254.5" cy="450.5" rx="84.5" ry="10.5" style="fill: rgb(38, 50, 56); transform-origin: 254.5px 450.5px;" id="elz1ru4u0o8f" class="animable"></ellipse></g><g id="freepik--Stars--inject-209" class="animable" style="transform-origin: 242.38px 234.522px;"><circle cx="398.55" cy="339.37" r="8.92" style="fill: rgb(184, 184, 184); transform-origin: 398.55px 339.37px;" id="eln0wcsrojw6" class="animable"></circle><g id="elis1o64zmwy"><circle cx="54.43" cy="229.26" r="8.92" style="fill: rgb(184, 184, 184); transform-origin: 54.43px 229.26px; transform: rotate(-45deg);" class="animable"></circle></g><g id="elfq5t155u76l"><circle cx="175.29" cy="265.4" r="8.92" style="fill: rgb(184, 184, 184); transform-origin: 175.29px 265.4px; transform: rotate(-45deg);" class="animable"></circle></g><g id="el0nmpxfxn743"><circle cx="72.58" cy="342.24" r="8.92" style="fill: rgb(184, 184, 184); transform-origin: 72.58px 342.24px; transform: rotate(-45deg);" class="animable"></circle></g><g id="eloe9kc9f55z"><circle cx="312.65" cy="219.18" r="8.92" style="fill: rgb(184, 184, 184); transform-origin: 312.65px 219.18px; transform: rotate(-75.81deg);" class="animable"></circle></g><g id="elcmqsp7jwjdp"><circle cx="186.23" cy="86.7" r="8.92" style="fill: rgb(184, 184, 184); transform-origin: 186.23px 86.7px; transform: rotate(-22.63deg);" class="animable"></circle></g><g id="el5bf2rkkk24"><circle cx="430.33" cy="222.54" r="8.92" style="fill: rgb(184, 184, 184); transform-origin: 430.33px 222.54px; transform: rotate(-45deg);" class="animable"></circle></g><path d="M434.36,118.56c-4,.6-4.53,1.09-5.13,5.13-.6-4-1.09-4.53-5.13-5.13,4-.6,4.53-1.09,5.13-5.13C429.83,117.47,430.32,118,434.36,118.56Z" style="fill: rgb(184, 184, 184); transform-origin: 429.23px 118.56px;" id="elrbx9s12uo3k" class="animable"></path><circle cx="75.27" cy="307.94" r="5.13" style="fill: rgb(184, 184, 184); transform-origin: 75.27px 307.94px;" id="el2dqj48am9b1" class="animable"></circle><circle cx="214.38" cy="122.26" r="4.8" style="fill: rgb(184, 184, 184); transform-origin: 214.38px 122.26px;" id="elsfhxw9135m" class="animable"></circle><circle cx="376.53" cy="166.05" r="4.8" style="fill: rgb(184, 184, 184); transform-origin: 376.53px 166.05px;" id="el6xjtcx7s753" class="animable"></circle><circle cx="114.28" cy="152.02" r="4.8" style="fill: rgb(184, 184, 184); transform-origin: 114.28px 152.02px;" id="eldova5spd8uc" class="animable"></circle><circle cx="307.27" cy="88.72" r="4.8" style="fill: rgb(184, 184, 184); transform-origin: 307.27px 88.72px;" id="elrf581wg33m" class="animable"></circle><path d="M378.55,388.55c-4.31.64-4.83,1.16-5.47,5.46-.64-4.3-1.16-4.82-5.47-5.46,4.31-.64,4.83-1.16,5.47-5.47C373.72,387.39,374.24,387.91,378.55,388.55Z" style="fill: rgb(184, 184, 184); transform-origin: 373.08px 388.545px;" id="elzem0szjqbsj" class="animable"></path><path d="M117.73,372.5c-4.31.64-4.83,1.16-5.47,5.46-.64-4.3-1.16-4.82-5.47-5.46,4.31-.64,4.83-1.16,5.47-5.47C112.9,371.34,113.42,371.86,117.73,372.5Z" style="fill: rgb(184, 184, 184); transform-origin: 112.26px 372.495px;" id="el57t1qt2y88u" class="animable"></path></g><g id="freepik--Chakras--inject-209" class="animable animator-active" style="transform-origin: 256.424px 223.922px;"><path d="M278.21,161.28c.76-3.82,1.93-17.77-17.74-30,0,0-7.94-8.74-7.94-14.3,0,3-3.76,8.27-5.52,10.75-2.6,3.68-5.89,5.79-9.31,8.57-6.44,5.23-11.83,14.36-9,22.8" style="fill: none; stroke: rgb(146, 227, 169); stroke-linecap: round; stroke-linejoin: round; stroke-width: 2px; transform-origin: 253.237px 139.13px;" id="elrsriv85ypv" class="animable"></path><path d="M227.09,161.59c-1.25-3.69-7.21-16.35-30.34-17.09,0,0-11.26-3.6-14-8.41,1.5,2.59.88,9,.6,12.06-.41,4.49-2.21,8-3.78,12.07-3,7.76-3.06,18.36,3.59,24.26" style="fill: none; stroke: rgb(146, 227, 169); stroke-linecap: round; stroke-linejoin: round; stroke-width: 2px; transform-origin: 202.356px 160.285px;" id="el8l8yt7grag4" class="animable"></path><path d="M183,187.42c-2.93-2.57-14.42-10.56-34.83.37,0,0-11.54,2.51-16.36-.27,2.6,1.5,5.28,7.39,6.55,10.15,1.89,4.1,2.08,8,2.77,12.34,1.31,8.21,6.52,17.43,15.24,19.22" style="fill: none; stroke: rgb(146, 227, 169); stroke-linecap: round; stroke-linejoin: round; stroke-width: 2px; transform-origin: 157.405px 205.71px;" id="elzkq72uub8d" class="animable"></path><path d="M157.7,231.84c-3.83-.76-17.77-1.93-30,17.74,0,0-8.74,7.94-14.3,7.94,3,0,8.26,3.76,10.74,5.52,3.69,2.6,5.8,5.89,8.57,9.31,5.24,6.44,14.36,11.83,22.8,9" style="fill: none; stroke: rgb(146, 227, 169); stroke-linecap: round; stroke-linejoin: round; stroke-width: 2px; transform-origin: 135.55px 256.813px;" id="elcxokmdvby68" class="animable"></path><path d="M158,283c-3.69,1.25-16.36,7.21-17.09,30.34,0,0-3.6,11.26-8.42,14,2.6-1.5,9-.88,12.06-.6,4.5.41,8,2.21,12.08,3.78,7.76,3,18.35,3.06,24.26-3.59" style="fill: none; stroke: rgb(146, 227, 169); stroke-linecap: round; stroke-linejoin: round; stroke-width: 2px; transform-origin: 156.69px 307.734px;" id="elfvqdhihw3i8" class="animable"></path><path d="M183.84,327.07c-2.58,2.93-10.56,14.42.37,34.82,0,0,2.51,11.55-.27,16.37,1.5-2.6,7.39-5.28,10.14-6.56,4.1-1.88,8-2.07,12.35-2.76,8.2-1.31,17.43-6.52,19.21-15.24" style="fill: none; stroke: rgb(146, 227, 169); stroke-linecap: round; stroke-linejoin: round; stroke-width: 2px; transform-origin: 202.124px 352.665px;" id="elu81q11fxv8m" class="animable"></path><path d="M228.26,352.35c-.77,3.83-1.94,17.77,17.73,30,0,0,7.95,8.74,7.95,14.3,0-3,3.76-8.26,5.51-10.74,2.6-3.69,5.9-5.8,9.31-8.57,6.45-5.24,11.83-14.36,9-22.8" style="fill: none; stroke: rgb(146, 227, 169); stroke-linecap: round; stroke-linejoin: round; stroke-width: 2px; transform-origin: 253.226px 374.5px;" id="elc4t7oqzcavm" class="animable"></path><path d="M279.37,352c1.25,3.69,7.21,16.36,30.35,17.09,0,0,11.25,3.6,14,8.42-1.5-2.6-.87-9-.6-12.06.42-4.5,2.21-8,3.78-12.08,3-7.76,3.07-18.35-3.59-24.26" style="fill: none; stroke: rgb(146, 227, 169); stroke-linecap: round; stroke-linejoin: round; stroke-width: 2px; transform-origin: 304.11px 353.31px;" id="el8xzt7ux4xno" class="animable"></path><path d="M323.48,326.21c2.93,2.58,14.42,10.56,34.83-.37,0,0,11.54-2.51,16.36.27-2.6-1.5-5.28-7.39-6.55-10.14-1.89-4.1-2.07-8-2.77-12.35-1.31-8.2-6.52-17.43-15.23-19.21" style="fill: none; stroke: rgb(146, 227, 169); stroke-linecap: round; stroke-linejoin: round; stroke-width: 2px; transform-origin: 349.075px 307.926px;" id="el2kp5zwol42j" class="animable"></path><path d="M348.77,281.79c3.82.77,17.77,1.94,30-17.73,0,0,8.74-7.95,14.3-7.95-3,0-8.27-3.76-10.75-5.51-3.68-2.61-5.79-5.9-8.57-9.31-5.23-6.45-14.36-11.83-22.8-9" style="fill: none; stroke: rgb(146, 227, 169); stroke-linecap: round; stroke-linejoin: round; stroke-width: 2px; transform-origin: 370.92px 256.824px;" id="el67anedgdpxk" class="animable"></path><path d="M348.45,230.68c3.7-1.25,16.36-7.21,17.1-30.35,0,0,3.6-11.25,8.41-14-2.59,1.5-9,.87-12.06.6-4.49-.42-8-2.21-12.07-3.78-7.76-3-18.36-3.07-24.26,3.59" style="fill: none; stroke: rgb(146, 227, 169); stroke-linecap: round; stroke-linejoin: round; stroke-width: 2px; transform-origin: 349.765px 205.94px;" id="el7duz0v7ks24" class="animable"></path><path d="M322.63,186.57c2.57-2.93,10.56-14.42-.37-34.83,0,0-2.51-11.54.27-16.36-1.5,2.6-7.39,5.28-10.15,6.55-4.1,1.89-8,2.07-12.34,2.77-8.21,1.31-17.43,6.52-19.22,15.23" style="fill: none; stroke: rgb(146, 227, 169); stroke-linecap: round; stroke-linejoin: round; stroke-width: 2px; transform-origin: 304.34px 160.975px;" id="elzbi667kzgr" class="animable"></path><circle cx="253.23" cy="256.82" r="99.39" style="fill: none; stroke: rgb(146, 227, 169); stroke-linecap: round; stroke-linejoin: round; stroke-width: 2px; transform-origin: 253.23px 256.82px;" id="elky027tcj1n" class="animable"></circle><g id="el801ci0tk13c"><circle cx="83.57" cy="261.08" r="25.18" style="fill: rgb(146, 227, 169); transform-origin: 83.57px 261.08px; transform: rotate(-13.13deg);" class="animable"></circle></g><path d="M95.91,251.64a13.52,13.52,0,0,0-3.08-.35,26,26,0,0,0,4.32,1.52l.25.06a.08.08,0,0,1,.06.09l-.55,2.49a25.55,25.55,0,0,0-.56,3.88,9.5,9.5,0,0,0,2-3.8,11.72,11.72,0,0,0,1.51,3.24,34.63,34.63,0,0,1,.7-4.84l.7-3.16a.09.09,0,0,0-.07-.12l-.32-.08a32.83,32.83,0,0,1-7.3-2.78A9.13,9.13,0,0,0,95.91,251.64Z" style="fill: none; stroke: rgb(38, 50, 56); stroke-linecap: round; stroke-linejoin: round; transform-origin: 97.0478px 253.56px;" id="elaqsyz8lrw7t" class="animable"></path><path d="M81.14,245.91a16.86,16.86,0,0,0-1.56,2,25.68,25.68,0,0,0,3.72-3.58l.1-.11a.07.07,0,0,1,.12,0A26,26,0,0,0,87.44,248a13.84,13.84,0,0,0-1.71-2.27,8.82,8.82,0,0,0,4.62.07,32.53,32.53,0,0,1-6.81-6.14h0a.09.09,0,0,0-.15,0l-.13.15A32.69,32.69,0,0,1,76.39,246,8.55,8.55,0,0,0,81.14,245.91Z" style="fill: none; stroke: rgb(38, 50, 56); stroke-linecap: round; stroke-linejoin: round; transform-origin: 83.37px 243.81px;" id="elwvk9dbsidxj" class="animable"></path><path d="M92.46,261.41l.46-.16c0-.06,0-.11,0-.17a9.49,9.49,0,0,0-4.28-7.94c-.25.2-.5.41-.77.65.07-.36.13-.69.18-1a9.47,9.47,0,0,0-9.28,0c.06.37.13.75.21,1.17-.32-.28-.61-.52-.89-.75a9.5,9.5,0,0,0-4.2,7.89c0,.12,0,.25,0,.37l.76.27L74,262a9.51,9.51,0,0,0,5.1,7.54c.07-.06.14-.11.21-.18,0,.09,0,.17-.05.26a9.45,9.45,0,0,0,9-.29s0-.08,0-.12l.09.08a9.49,9.49,0,0,0,4.66-7.7Z" style="fill: none; stroke: rgb(38, 50, 56); stroke-linecap: round; stroke-linejoin: round; transform-origin: 83.45px 261.098px;" id="el241qw8q6jo8" class="animable"></path><path d="M67,259.42a10.33,10.33,0,0,0,1.78-3.58,10.89,10.89,0,0,0,1.67,3.44,23.88,23.88,0,0,0-.55-3.83L69.37,253a.08.08,0,0,1,.06-.09l.35-.09a25.75,25.75,0,0,0,3.94-1.34,15.15,15.15,0,0,0-2.76.35,8.74,8.74,0,0,0,2.39-4,32.57,32.57,0,0,1-7.25,2.76l-.45.11a.1.1,0,0,0-.07.12l.7,3.16A34,34,0,0,1,67,259.42Z" style="fill: none; stroke: rgb(38, 50, 56); stroke-linecap: round; stroke-linejoin: round; transform-origin: 69.6486px 253.625px;" id="elfluldm8071p" class="animable"></path><path d="M71.23,271.49a9.62,9.62,0,0,0,4.23.19,26.09,26.09,0,0,0-5.72-2.15l-.31-.07a.08.08,0,0,1-.06-.09l.63-3c.14-.67.24-1.34.32-2a11.93,11.93,0,0,0-1.52,3.25,9.82,9.82,0,0,0-1.87-3.67,31.33,31.33,0,0,1-.56,3.85l-.79,3.82a.1.1,0,0,0,.07.12l.4.1a32.75,32.75,0,0,1,7.28,2.74A11,11,0,0,0,71.23,271.49Z" style="fill: none; stroke: rgb(38, 50, 56); stroke-linecap: round; stroke-linejoin: round; transform-origin: 70.5186px 269.265px;" id="elqw67dn96kpf" class="animable"></path><path d="M99.9,264a11.57,11.57,0,0,0-1.56,3.3,9.76,9.76,0,0,0-1.93-3.73,26.64,26.64,0,0,0,.42,2.8l.63,3a.08.08,0,0,1-.06.09l-.31.07a25.93,25.93,0,0,0-5.33,2,9.21,9.21,0,0,0,4.42-.14,12,12,0,0,0-2,2.88,32.81,32.81,0,0,1,6.63-2.4l.4-.1a.09.09,0,0,0,.07-.12l-.79-3.82A34.62,34.62,0,0,1,99.9,264Z" style="fill: none; stroke: rgb(38, 50, 56); stroke-linecap: round; stroke-linejoin: round; transform-origin: 96.5228px 268.92px;" id="elebk8jw2m9yn" class="animable"></path><path d="M86,277.22a9.4,9.4,0,0,0,2.31-3.69,26.54,26.54,0,0,0-4.15,3.64l-.69.75a.08.08,0,0,1-.11,0l-.69-.75a26.22,26.22,0,0,0-3.46-3.12,10.27,10.27,0,0,0,2.2,3.32,10.42,10.42,0,0,0-3.92-.25,32.42,32.42,0,0,1,5,4.4l.87,1a.11.11,0,0,0,.15,0l.87-1a32.73,32.73,0,0,1,5.25-4.6A11.55,11.55,0,0,0,86,277.22Z" style="fill: none; stroke: rgb(38, 50, 56); stroke-linecap: round; stroke-linejoin: round; transform-origin: 83.56px 278.04px;" id="elb7k5et71yb" class="animable"></path><path d="M81.14,245.91c-2.54,2.89-2.91,4.26-2.15,8-2.89-2.54-4.25-2.91-8-2.15,2.55-2.89,2.91-4.25,2.15-8C76,246.31,77.37,246.67,81.14,245.91ZM62.92,261.72c3.65,1.23,4.65,2.23,5.88,5.88C70,264,71,263,74.68,261.72c-3.65-1.23-4.65-2.23-5.88-5.88C67.57,259.49,66.57,260.49,62.92,261.72Zm10.46,17.8c2.89-2.54,4.25-2.91,8-2.15-2.54-2.89-2.91-4.25-2.15-8-2.89,2.55-4.26,2.91-8,2.15C73.77,274.38,74.14,275.75,73.38,279.52ZM94,279.37c-.76-3.78-.39-5.14,2.15-8-3.78.76-5.14.39-8-2.15.76,3.77.39,5.14-2.15,8C89.77,276.46,91.14,276.82,94,279.37Zm10.19-18c-3.65-1.23-4.65-2.23-5.88-5.88-1.23,3.65-2.23,4.65-5.88,5.88,3.65,1.23,4.65,2.23,5.88,5.88C99.57,263.64,100.57,262.64,104.22,261.41Zm-10.46-17.8c-2.89,2.54-4.25,2.91-8,2.15,2.54,2.89,2.91,4.25,2.15,8,2.89-2.55,4.26-2.91,8-2.15C93.37,248.75,93,247.38,93.76,243.61Z" style="fill: none; stroke: rgb(38, 50, 56); stroke-linecap: round; stroke-linejoin: round; transform-origin: 83.57px 261.545px;" id="elu4w17lt6mp" class="animable"></path><circle cx="95.76" cy="181.79" r="25.18" style="fill: rgb(146, 227, 169); transform-origin: 95.76px 181.79px;" id="eldhq75n5hub" class="animable"></circle><g id="elft4qie72hm"><circle cx="95.8" cy="181.79" r="9.61" style="fill: none; stroke: rgb(38, 50, 56); stroke-linecap: round; stroke-linejoin: round; transform-origin: 95.8px 181.79px; transform: rotate(-44.24deg);" class="animable"></circle></g><polygon points="95.8 191.4 103.67 177.15 87.93 177.15 95.8 191.4" style="fill: none; stroke: rgb(38, 50, 56); stroke-linecap: round; stroke-linejoin: round; transform-origin: 95.8px 184.275px;" id="elvr5cc0gkw0q" class="animable"></polygon><path d="M89.2,174.66s-4.74-1.58-8.81,5c0,0-2.49,2.26-4.07,2.26.85,0,2.35,1.07,3.06,1.57a12.75,12.75,0,0,1,2.43,2.65c1.49,1.83,4.09,3.37,6.49,2.57" style="fill: none; stroke: rgb(38, 50, 56); stroke-linecap: round; stroke-linejoin: round; transform-origin: 82.76px 181.71px;" id="el1oifrtq2v59h" class="animable"></path><path d="M102.31,174.66s4.75-1.58,8.82,5c0,0,2.48,2.26,4.06,2.26-.85,0-2.35,1.07-3,1.57a12.53,12.53,0,0,0-2.44,2.65c-1.49,1.83-4.09,3.37-6.49,2.57" style="fill: none; stroke: rgb(38, 50, 56); stroke-linecap: round; stroke-linejoin: round; transform-origin: 108.75px 181.71px;" id="elxbp8n4ngqk" class="animable"></path><circle cx="154.98" cy="111.64" r="25.18" style="fill: rgb(146, 227, 169); transform-origin: 154.98px 111.64px;" id="elihl7y347b3j" class="animable"></circle><path d="M158.45,98.36c.11-.53.27-2.47-2.46-4.17,0,0-1.11-1.21-1.11-2a3.77,3.77,0,0,1-.77,1.5,6.34,6.34,0,0,1-1.29,1.19,3.08,3.08,0,0,0-1.25,3.17" style="fill: none; stroke: rgb(38, 50, 56); stroke-linecap: round; stroke-linejoin: round; transform-origin: 155px 95.275px;" id="elqkavpc3skyl" class="animable"></path><path d="M151.35,98.4c-.18-.51-1-2.27-4.22-2.38,0,0-1.57-.5-1.95-1.17a3.94,3.94,0,0,1,.08,1.68,6.09,6.09,0,0,1-.53,1.68,3.11,3.11,0,0,0,.5,3.37" style="fill: none; stroke: rgb(38, 50, 56); stroke-linecap: round; stroke-linejoin: round; transform-origin: 147.897px 98.215px;" id="elhwubmv2z6kw" class="animable"></path><path d="M145.21,102c-.4-.36-2-1.47-4.84.05a4.48,4.48,0,0,1-2.27,0,3.74,3.74,0,0,1,.91,1.41,5.89,5.89,0,0,1,.38,1.71,3.12,3.12,0,0,0,2.12,2.67" style="fill: none; stroke: rgb(38, 50, 56); stroke-linecap: round; stroke-linejoin: round; transform-origin: 141.655px 104.556px;" id="elj8jbrcfx7k" class="animable"></path><path d="M141.7,108.17c-.53-.11-2.47-.27-4.17,2.46,0,0-1.21,1.11-2,1.11a3.88,3.88,0,0,1,1.5.76,6.14,6.14,0,0,1,1.19,1.3,3.11,3.11,0,0,0,3.17,1.25" style="fill: none; stroke: rgb(38, 50, 56); stroke-linecap: round; stroke-linejoin: round; transform-origin: 138.615px 111.618px;" id="el8haytxyxqlg" class="animable"></path><path d="M141.74,115.27c-.51.17-2.27,1-2.37,4.22,0,0-.5,1.56-1.17,2a3.73,3.73,0,0,1,1.67-.08,5.76,5.76,0,0,1,1.68.52,3.09,3.09,0,0,0,3.37-.5" style="fill: none; stroke: rgb(38, 50, 56); stroke-linecap: round; stroke-linejoin: round; transform-origin: 141.56px 118.745px;" id="elsr2p3ceh7xl" class="animable"></path><path d="M145.33,121.4c-.36.41-1.47,2,0,4.84a4.52,4.52,0,0,1,0,2.28,3.62,3.62,0,0,1,1.41-.91,6.33,6.33,0,0,1,1.71-.39,3.08,3.08,0,0,0,2.67-2.11" style="fill: none; stroke: rgb(38, 50, 56); stroke-linecap: round; stroke-linejoin: round; transform-origin: 147.855px 124.96px;" id="elopr4gaw2vzc" class="animable"></path><path d="M151.51,124.92c-.11.53-.27,2.47,2.46,4.17,0,0,1.11,1.21,1.11,2a3.84,3.84,0,0,1,.76-1.49,6.12,6.12,0,0,1,1.3-1.19,3.12,3.12,0,0,0,1.25-3.17" style="fill: none; stroke: rgb(38, 50, 56); stroke-linecap: round; stroke-linejoin: round; transform-origin: 154.957px 128.005px;" id="el3v285xw39hj" class="animable"></path><path d="M158.61,124.87c.18.52,1,2.28,4.22,2.38,0,0,1.57.5,1.95,1.17a3.78,3.78,0,0,1-.08-1.68,6.68,6.68,0,0,1,.52-1.68,3.08,3.08,0,0,0-.5-3.37" style="fill: none; stroke: rgb(38, 50, 56); stroke-linecap: round; stroke-linejoin: round; transform-origin: 162.061px 125.055px;" id="elfuma1jobaoj" class="animable"></path><path d="M164.74,121.28c.41.36,2,1.47,4.85,0a4.39,4.39,0,0,1,2.27,0,3.9,3.9,0,0,1-.91-1.41,6.32,6.32,0,0,1-.39-1.72,3.09,3.09,0,0,0-2.11-2.67" style="fill: none; stroke: rgb(38, 50, 56); stroke-linecap: round; stroke-linejoin: round; transform-origin: 168.3px 118.75px;" id="elw1qrd61g3rl" class="animable"></path><path d="M168.26,115.11c.53.11,2.47.27,4.17-2.47,0,0,1.21-1.1,2-1.1a3.8,3.8,0,0,1-1.49-.77,6.07,6.07,0,0,1-1.19-1.29,3.08,3.08,0,0,0-3.17-1.25" style="fill: none; stroke: rgb(38, 50, 56); stroke-linecap: round; stroke-linejoin: round; transform-origin: 171.345px 111.66px;" id="el3sgtzhy5xbk" class="animable"></path><path d="M168.22,108c.51-.17,2.27-1,2.37-4.21,0,0,.5-1.57,1.17-2a3.77,3.77,0,0,1-1.68.09,6.14,6.14,0,0,1-1.67-.53,3.13,3.13,0,0,0-3.38.5" style="fill: none; stroke: rgb(38, 50, 56); stroke-linecap: round; stroke-linejoin: round; transform-origin: 168.395px 104.532px;" id="elxyqxj5vsdj" class="animable"></path><path d="M164.63,101.87c.35-.4,1.46-2-.06-4.84a4.51,4.51,0,0,1,0-2.27,3.9,3.9,0,0,1-1.41.91,6,6,0,0,1-1.72.38,3.1,3.1,0,0,0-2.67,2.12" style="fill: none; stroke: rgb(38, 50, 56); stroke-linecap: round; stroke-linejoin: round; transform-origin: 162.06px 98.315px;" id="elzwkbldrtbn" class="animable"></path><circle cx="154.98" cy="111.64" r="13.3" style="fill: none; stroke: rgb(38, 50, 56); stroke-linecap: round; stroke-linejoin: round; transform-origin: 154.98px 111.64px;" id="elap0e8evywsv" class="animable"></circle><circle cx="154.98" cy="111.64" r="6.15" style="fill: none; stroke: rgb(38, 50, 56); stroke-linecap: round; stroke-linejoin: round; transform-origin: 154.98px 111.64px;" id="elm028teoy1g" class="animable"></circle><polygon points="154.98 124.93 165.87 105.21 144.09 105.21 154.98 124.93" style="fill: none; stroke: rgb(38, 50, 56); stroke-linecap: round; stroke-linejoin: round; transform-origin: 154.98px 115.07px;" id="el0e119r1v0rqs" class="animable"></polygon><circle cx="348.23" cy="111.62" r="25.18" style="fill: rgb(146, 227, 169); transform-origin: 348.23px 111.62px;" id="elt8k7meqwij" class="animable"></circle><circle cx="348.23" cy="111.62" r="13.3" style="fill: none; stroke: rgb(38, 50, 56); stroke-linecap: round; stroke-linejoin: round; transform-origin: 348.23px 111.62px;" id="elt4ogopdwacb" class="animable"></circle><path d="M349.49,98.22c-.18-1-1-3.07-4.57-4.16,0,0-1.84-1.18-2.11-2.18a5.21,5.21,0,0,1-.47,2.19,8,8,0,0,1-1.26,2c-.9,1.25-1.43,3.15-.52,4.52" style="fill: none; stroke: rgb(38, 50, 56); stroke-linecap: round; stroke-linejoin: round; transform-origin: 344.789px 96.235px;" id="elmwhjpbgx93l" class="animable"></path><path d="M342.63,99.39c-.65-.77-2.4-2.17-6-1.32,0,0-2.19-.1-2.92-.83a5.15,5.15,0,0,1,.69,2.13,8.43,8.43,0,0,1-.1,2.35c-.16,1.53.33,3.43,1.81,4.17" style="fill: none; stroke: rgb(38, 50, 56); stroke-linecap: round; stroke-linejoin: round; transform-origin: 338.17px 101.565px;" id="elq1rcbdfmy6" class="animable"></path><path d="M337.26,103.83c-.95-.34-3.15-.68-5.88,1.88,0,0-1.95,1-2.95.74.54.14,1.3,1.07,1.66,1.5a7.8,7.8,0,0,1,1.09,2.08c.63,1.41,2,2.81,3.65,2.71" style="fill: none; stroke: rgb(38, 50, 56); stroke-linecap: round; stroke-linejoin: round; transform-origin: 332.845px 108.171px;" id="el92gr9wzd2fb" class="animable"></path><path d="M334.84,110.36c-1,.17-3.08,1-4.16,4.57,0,0-1.18,1.84-2.18,2.11a5.21,5.21,0,0,1,2.19.47,8.21,8.21,0,0,1,2,1.26c1.25.9,3.14,1.43,4.52.52" style="fill: none; stroke: rgb(38, 50, 56); stroke-linecap: round; stroke-linejoin: round; transform-origin: 332.855px 115.061px;" id="elwrsy5z2dcz" class="animable"></path><path d="M336,117.22c-.77.65-2.17,2.39-1.31,6,0,0-.11,2.19-.84,2.92a5.24,5.24,0,0,1,2.14-.69,8.34,8.34,0,0,1,2.34.1c1.54.16,3.44-.33,4.18-1.81" style="fill: none; stroke: rgb(38, 50, 56); stroke-linecap: round; stroke-linejoin: round; transform-origin: 338.18px 121.68px;" id="elkvyl0dtg4p" class="animable"></path><path d="M340.45,122.58c-.35,1-.69,3.16,1.88,5.89,0,0,1,1.95.73,2.95.15-.54,1.07-1.3,1.51-1.66a7.8,7.8,0,0,1,2.08-1.09c1.4-.63,2.81-2,2.71-3.66" style="fill: none; stroke: rgb(38, 50, 56); stroke-linecap: round; stroke-linejoin: round; transform-origin: 344.788px 127px;" id="elf6r3m8ml79m" class="animable"></path><path d="M347,125c.18,1,1,3.07,4.58,4.16,0,0,1.84,1.18,2.11,2.18a4.92,4.92,0,0,1,.47-2.19,8,8,0,0,1,1.26-2c.9-1.25,1.43-3.15.52-4.52" style="fill: none; stroke: rgb(38, 50, 56); stroke-linecap: round; stroke-linejoin: round; transform-origin: 351.706px 126.985px;" id="el5y96jpgn6i8" class="animable"></path><path d="M353.84,123.84c.65.78,2.39,2.17,6,1.32,0,0,2.19.1,2.92.83a5,5,0,0,1-.69-2.13,8,8,0,0,1,.1-2.34c.16-1.54-.33-3.44-1.81-4.18" style="fill: none; stroke: rgb(38, 50, 56); stroke-linecap: round; stroke-linejoin: round; transform-origin: 358.3px 121.665px;" id="ely9kdoiadgj" class="animable"></path><path d="M359.2,119.4c.95.35,3.16.69,5.89-1.88,0,0,2-1,3-.73-.54-.15-1.31-1.07-1.67-1.51a8.07,8.07,0,0,1-1.08-2.08c-.63-1.4-2-2.81-3.66-2.71" style="fill: none; stroke: rgb(38, 50, 56); stroke-linecap: round; stroke-linejoin: round; transform-origin: 363.645px 115.062px;" id="elnctxkf1o7br" class="animable"></path><path d="M361.63,112.88c1-.18,3.07-1,4.16-4.58,0,0,1.18-1.84,2.18-2.11a4.92,4.92,0,0,1-2.19-.47,8.08,8.08,0,0,1-2-1.26c-1.24-.9-3.14-1.43-4.52-.52" style="fill: none; stroke: rgb(38, 50, 56); stroke-linecap: round; stroke-linejoin: round; transform-origin: 363.615px 108.174px;" id="eldd0vc29fpq" class="animable"></path><path d="M360.46,106c.77-.65,2.17-2.39,1.32-6,0,0,.1-2.19.83-2.92a5.05,5.05,0,0,1-2.13.69,8,8,0,0,1-2.35-.1c-1.53-.16-3.43.33-4.17,1.81" style="fill: none; stroke: rgb(38, 50, 56); stroke-linecap: round; stroke-linejoin: round; transform-origin: 358.285px 101.54px;" id="elqjh8wlco72r" class="animable"></path><path d="M356,100.65c.34-1,.68-3.16-1.88-5.89,0,0-1-2-.74-3-.14.54-1.07,1.3-1.5,1.66a8,8,0,0,1-2.08,1.09c-1.41.63-2.81,2-2.71,3.66" style="fill: none; stroke: rgb(38, 50, 56); stroke-linecap: round; stroke-linejoin: round; transform-origin: 351.659px 96.205px;" id="el2ej1gyw1z8d" class="animable"></path><polygon points="348.23 124.91 359.13 105.19 337.34 105.19 348.23 124.91" style="fill: none; stroke: rgb(38, 50, 56); stroke-linecap: round; stroke-linejoin: round; transform-origin: 348.235px 115.05px;" id="elwyee90sdwd" class="animable"></polygon><g id="elp6bhnd11s6k"><circle cx="254.67" cy="84.18" r="25.18" style="fill: rgb(146, 227, 169); transform-origin: 254.67px 84.18px; transform: rotate(-67.13deg);" class="animable"></circle></g><path d="M258.14,70.9c.11-.53.27-2.47-2.46-4.17,0,0-1.11-1.21-1.11-2a3.77,3.77,0,0,1-.77,1.5,6.34,6.34,0,0,1-1.29,1.19,3.1,3.1,0,0,0-1.25,3.17" style="fill: none; stroke: rgb(38, 50, 56); stroke-linecap: round; stroke-linejoin: round; transform-origin: 254.691px 67.815px;" id="elpsrosldwfn" class="animable"></path><path d="M251,70.94c-.18-.51-1-2.27-4.22-2.37,0,0-1.57-.5-1.95-1.17a3.88,3.88,0,0,1,.08,1.67,6.09,6.09,0,0,1-.53,1.68,3.13,3.13,0,0,0,.5,3.38" style="fill: none; stroke: rgb(38, 50, 56); stroke-linecap: round; stroke-linejoin: round; transform-origin: 247.547px 70.765px;" id="elbis8d9xv4n6" class="animable"></path><path d="M244.9,74.53c-.4-.35-2-1.46-4.84.06a4.51,4.51,0,0,1-2.27,0A3.82,3.82,0,0,1,238.7,76a6,6,0,0,1,.38,1.71,3.13,3.13,0,0,0,2.12,2.68" style="fill: none; stroke: rgb(38, 50, 56); stroke-linecap: round; stroke-linejoin: round; transform-origin: 241.345px 77.1002px;" id="el7h65mbvsjqi" class="animable"></path><path d="M241.39,80.71c-.53-.11-2.47-.27-4.17,2.46,0,0-1.21,1.11-2,1.11a3.77,3.77,0,0,1,1.5.77,6.09,6.09,0,0,1,1.19,1.29,3.09,3.09,0,0,0,3.17,1.25" style="fill: none; stroke: rgb(38, 50, 56); stroke-linecap: round; stroke-linejoin: round; transform-origin: 238.305px 84.1591px;" id="el1d2ieu6kdn8" class="animable"></path><path d="M241.43,87.81c-.51.18-2.27,1-2.37,4.22,0,0-.5,1.57-1.17,2a3.73,3.73,0,0,1,1.67-.08,6.09,6.09,0,0,1,1.68.53,3.11,3.11,0,0,0,3.37-.5" style="fill: none; stroke: rgb(38, 50, 56); stroke-linecap: round; stroke-linejoin: round; transform-origin: 241.25px 91.2881px;" id="elb0r3u1t4d59" class="animable"></path><path d="M245,94c-.36.4-1.47,2,0,4.84a4.48,4.48,0,0,1,0,2.27,3.74,3.74,0,0,1,1.41-.91,6,6,0,0,1,1.71-.38,3.11,3.11,0,0,0,2.67-2.12" style="fill: none; stroke: rgb(38, 50, 56); stroke-linecap: round; stroke-linejoin: round; transform-origin: 247.525px 97.555px;" id="elkye9abucy2" class="animable"></path><path d="M251.2,97.46c-.11.53-.27,2.47,2.46,4.17,0,0,1.11,1.21,1.11,2a3.88,3.88,0,0,1,.76-1.5,6.39,6.39,0,0,1,1.3-1.19,3.12,3.12,0,0,0,1.25-3.17" style="fill: none; stroke: rgb(38, 50, 56); stroke-linecap: round; stroke-linejoin: round; transform-origin: 254.647px 100.545px;" id="elywm7gkf72hn" class="animable"></path><path d="M258.3,97.42c.18.51,1,2.27,4.22,2.37,0,0,1.57.5,2,1.17a3.73,3.73,0,0,1-.08-1.67,6.43,6.43,0,0,1,.52-1.68,3.07,3.07,0,0,0-.5-3.37" style="fill: none; stroke: rgb(38, 50, 56); stroke-linecap: round; stroke-linejoin: round; transform-origin: 261.777px 97.6px;" id="elgcdroaoayfg" class="animable"></path><path d="M264.43,93.83c.41.36,2,1.47,4.85,0a4.48,4.48,0,0,1,2.27,0,3.82,3.82,0,0,1-.91-1.41,6.33,6.33,0,0,1-.39-1.71A3.08,3.08,0,0,0,268.14,88" style="fill: none; stroke: rgb(38, 50, 56); stroke-linecap: round; stroke-linejoin: round; transform-origin: 267.99px 91.2855px;" id="el66n0631eaf4" class="animable"></path><path d="M268,87.65c.53.11,2.47.27,4.17-2.46,0,0,1.21-1.11,2-1.11a3.91,3.91,0,0,1-1.49-.76,6.12,6.12,0,0,1-1.19-1.3,3.12,3.12,0,0,0-3.17-1.25" style="fill: none; stroke: rgb(38, 50, 56); stroke-linecap: round; stroke-linejoin: round; transform-origin: 271.085px 84.2026px;" id="eluv5237rqpz" class="animable"></path><path d="M267.91,80.55c.51-.18,2.27-1,2.37-4.22,0,0,.5-1.57,1.17-2a3.78,3.78,0,0,1-1.68.08,6.48,6.48,0,0,1-1.67-.52,3.09,3.09,0,0,0-3.38.5" style="fill: none; stroke: rgb(38, 50, 56); stroke-linecap: round; stroke-linejoin: round; transform-origin: 268.085px 77.0735px;" id="elflcrgz71d3k" class="animable"></path><path d="M264.32,74.42c.35-.41,1.46-2-.06-4.85a4.39,4.39,0,0,1,0-2.27,3.9,3.9,0,0,1-1.41.91,6,6,0,0,1-1.72.38,3.12,3.12,0,0,0-2.67,2.12" style="fill: none; stroke: rgb(38, 50, 56); stroke-linecap: round; stroke-linejoin: round; transform-origin: 261.75px 70.86px;" id="ely36u2ok2huc" class="animable"></path><circle cx="254.67" cy="84.18" r="13.3" style="fill: none; stroke: rgb(38, 50, 56); stroke-linecap: round; stroke-linejoin: round; transform-origin: 254.67px 84.18px;" id="el8hiopm5qji3" class="animable"></circle><polygon points="254.67 97.21 265.56 77.49 243.78 77.49 254.67 97.21" style="fill: none; stroke: rgb(38, 50, 56); stroke-linecap: round; stroke-linejoin: round; transform-origin: 254.67px 87.35px;" id="elpw9smcll5r" class="animable"></polygon><polygon points="254.67 71.09 243.78 90.81 265.56 90.81 254.67 71.09" style="fill: none; stroke: rgb(38, 50, 56); stroke-linecap: round; stroke-linejoin: round; transform-origin: 254.67px 80.95px;" id="el7wnj175ij18" class="animable"></polygon><g id="elvqzbsywuo2"><circle cx="413.07" cy="180.34" r="25.18" style="fill: rgb(146, 227, 169); transform-origin: 413.07px 180.34px; transform: rotate(-67.13deg);" class="animable"></circle></g><circle cx="413.07" cy="180.23" r="11.88" style="fill: none; stroke: rgb(38, 50, 56); stroke-linecap: round; stroke-linejoin: round; transform-origin: 413.07px 180.23px;" id="elnyykaxf0s1r" class="animable"></circle><g id="elb1a9bs476q"><circle cx="413.07" cy="180.23" r="9.84" style="fill: none; stroke: rgb(38, 50, 56); stroke-linecap: round; stroke-linejoin: round; transform-origin: 413.07px 180.23px; transform: rotate(-76.77deg);" class="animable"></circle></g><g id="el9i9zg3vvn3s"><circle cx="413.07" cy="178.14" r="7.55" style="fill: none; stroke: rgb(38, 50, 56); stroke-linecap: round; stroke-linejoin: round; transform-origin: 413.07px 178.14px; transform: rotate(-76.76deg);" class="animable"></circle></g><path d="M412.74,168.24c-.51-1.11-2.09-3.31-6.62-3.49,0,0-2.52-.83-3.13-1.91a6.15,6.15,0,0,1,.11,2.71,9.91,9.91,0,0,1-.87,2.7c-.68,1.74-.72,4.11.76,5.45" style="fill: none; stroke: rgb(38, 50, 56); stroke-linecap: round; stroke-linejoin: round; transform-origin: 407.258px 168.27px;" id="elsludpgip4xn" class="animable"></path><path d="M412.74,192.44c-.51,1.11-2.09,3.3-6.62,3.48,0,0-2.52.83-3.13,1.92a6.15,6.15,0,0,0,.11-2.71,9.87,9.87,0,0,0-.87-2.71c-.68-1.73-.72-4.11.76-5.45" style="fill: none; stroke: rgb(38, 50, 56); stroke-linecap: round; stroke-linejoin: round; transform-origin: 407.258px 192.405px;" id="elou0zo3nh1z" class="animable"></path><path d="M402.22,174.14c-1.21-.09-3.9.22-6.25,4.1,0,0-2,1.8-3.2,1.81a6.17,6.17,0,0,1,2.43,1.21,10.07,10.07,0,0,1,1.94,2.08c1.19,1.43,3.25,2.62,5.14,2" style="fill: none; stroke: rgb(38, 50, 56); stroke-linecap: round; stroke-linejoin: round; transform-origin: 397.525px 179.818px;" id="elzsq0v7pc8bp" class="animable"></path><path d="M413.4,168.24c.51-1.11,2.09-3.31,6.61-3.49,0,0,2.52-.83,3.14-1.91a6.15,6.15,0,0,0-.11,2.71,9.91,9.91,0,0,0,.87,2.7c.68,1.74.72,4.11-.76,5.45" style="fill: none; stroke: rgb(38, 50, 56); stroke-linecap: round; stroke-linejoin: round; transform-origin: 418.882px 168.27px;" id="ell75lamgis6c" class="animable"></path><path d="M413.4,192.44c.51,1.11,2.09,3.3,6.61,3.48,0,0,2.52.83,3.14,1.92a6.15,6.15,0,0,1-.11-2.71,9.87,9.87,0,0,1,.87-2.71c.68-1.73.72-4.11-.76-5.45" style="fill: none; stroke: rgb(38, 50, 56); stroke-linecap: round; stroke-linejoin: round; transform-origin: 418.882px 192.405px;" id="elxqclk0m3" class="animable"></path><path d="M423.91,174.14c1.22-.09,3.91.22,6.26,4.1,0,0,1.95,1.8,3.2,1.81a6.17,6.17,0,0,0-2.43,1.21,10.07,10.07,0,0,0-1.94,2.08c-1.19,1.43-3.25,2.62-5.14,2" style="fill: none; stroke: rgb(38, 50, 56); stroke-linecap: round; stroke-linejoin: round; transform-origin: 428.615px 179.818px;" id="elw2gzg3jzve" class="animable"></path><g id="el159jirqcuuu"><circle cx="423.91" cy="266.59" r="25.18" style="fill: rgb(146, 227, 169); transform-origin: 423.91px 266.59px; transform: rotate(-45deg);" class="animable"></circle></g><g id="el7ufrti92r7e"><circle cx="423.95" cy="266.34" r="11.88" style="fill: none; stroke: rgb(38, 50, 56); stroke-linecap: round; stroke-linejoin: round; transform-origin: 423.95px 266.34px; transform: rotate(-27.98deg);" class="animable"></circle></g><polygon points="423.62 271.89 428.72 262.66 418.53 262.66 423.62 271.89" style="fill: none; stroke: rgb(38, 50, 56); stroke-linecap: round; stroke-linejoin: round; transform-origin: 423.625px 267.275px;" id="el1mu88y8b4h1" class="animable"></polygon><path d="M422.93,254.55a7.58,7.58,0,0,0-2.93-1.82,10.79,10.79,0,0,0-3.23-.55c-2.62-.05-6.34,1.1-8.5-1.16.65.68.94,2.69,1.08,3.64a13.91,13.91,0,0,1-.26,4c-.33,2.58.42,5.83,2.89,7.14" style="fill: none; stroke: rgb(38, 50, 56); stroke-linecap: round; stroke-linejoin: round; transform-origin: 415.6px 258.41px;" id="el30qcyw19lx5" class="animable"></path><path d="M422.93,278.63a7.68,7.68,0,0,1-2.93,1.81,10.19,10.19,0,0,1-3.23.55c-2.62.06-6.34-1.09-8.5,1.17.65-.69.94-2.7,1.08-3.64a13.89,13.89,0,0,0-.26-4c-.33-2.59.42-5.83,2.89-7.14" style="fill: none; stroke: rgb(38, 50, 56); stroke-linecap: round; stroke-linejoin: round; transform-origin: 415.6px 274.77px;" id="el2iiyqjl0f2m" class="animable"></path><path d="M424.89,254.55a7.58,7.58,0,0,1,2.93-1.82,10.73,10.73,0,0,1,3.23-.55c2.62-.05,6.34,1.1,8.5-1.16-.65.68-.94,2.69-1.08,3.64a13.56,13.56,0,0,0,.26,4c.33,2.58-.42,5.83-2.89,7.14" style="fill: none; stroke: rgb(38, 50, 56); stroke-linecap: round; stroke-linejoin: round; transform-origin: 432.22px 258.41px;" id="elr3r2mygfl3g" class="animable"></path><path d="M424.89,278.63a7.68,7.68,0,0,0,2.93,1.81,10.14,10.14,0,0,0,3.23.55c2.62.06,6.34-1.09,8.5,1.17-.65-.69-.94-2.7-1.08-3.64a13.54,13.54,0,0,1,.26-4c.33-2.59-.42-5.83-2.89-7.14" style="fill: none; stroke: rgb(38, 50, 56); stroke-linecap: round; stroke-linejoin: round; transform-origin: 432.22px 274.77px;" id="elk3jnwi1ndqc" class="animable"></path><rect x="415.51" y="257.9" width="16.89" height="16.89" style="fill: none; stroke: rgb(38, 50, 56); stroke-linecap: round; stroke-linejoin: round; transform-origin: 423.955px 266.345px;" id="elh380w5dwvug" class="animable"></rect></g><g id="freepik--Character--inject-209" class="animable" style="transform-origin: 254.58px 287.44px;"><path d="M202.12,269.75c1.45-4.9,3.7-9.24,7.16-11.19,6-3.36,18.71-4.46,23.55-4.77l.62-.26.53-.24.77-.39a13.31,13.31,0,0,0,5.09-4.39,21,21,0,0,0,2-4.81,25.26,25.26,0,0,1-8.25-10.57,6.8,6.8,0,0,1-3.11-1.07,7,7,0,0,1-2.56-3.07,7,7,0,0,1-3.6-1.73,6.88,6.88,0,0,1-2-3.45,6.77,6.77,0,0,1-4.69-6,6.84,6.84,0,0,1-3.64-6.72,6.8,6.8,0,0,1-2.48-7.23,6.81,6.81,0,0,1-1.25-7.53,6.82,6.82,0,0,1,0-7.64,6.81,6.81,0,0,1,1.25-7.53,6.82,6.82,0,0,1,2.48-7.23,6.81,6.81,0,0,1,3.64-6.71,6.8,6.8,0,0,1,4.69-6,6.81,6.81,0,0,1,5.61-5.17,6.83,6.83,0,0,1,6.39-4.18,6.91,6.91,0,0,1,3-2.61,6.65,6.65,0,0,1,2.73-.57,7,7,0,0,1,1.24.11,6.87,6.87,0,0,1,3.42-2.08,6.78,6.78,0,0,1,1.62-.2,7.32,7.32,0,0,1,2.36.4,7.07,7.07,0,0,1,3.72-1.48l.54,0a7.07,7.07,0,0,1,3.35.88,7.11,7.11,0,0,1,3.36-.88l.54,0a7.11,7.11,0,0,1,3.72,1.48,7.32,7.32,0,0,1,2.36-.4,6.64,6.64,0,0,1,1.61.2,6.9,6.9,0,0,1,3.43,2.08,7.06,7.06,0,0,1,1.24-.11,6.73,6.73,0,0,1,2.74.57,6.94,6.94,0,0,1,3,2.61,6.83,6.83,0,0,1,6.39,4.18,6.93,6.93,0,0,1,3.6,1.72,7,7,0,0,1,2,3.45,6.8,6.8,0,0,1,4.69,6,6.81,6.81,0,0,1,3.64,6.71,7,7,0,0,1,2.35,3.24,6.86,6.86,0,0,1,.13,4,6.81,6.81,0,0,1,1.25,7.53,6.82,6.82,0,0,1,0,7.64,6.86,6.86,0,0,1,.53,4,7,7,0,0,1-1.78,3.59,6.8,6.8,0,0,1-2.48,7.22,6.81,6.81,0,0,1-3.64,6.72,6.94,6.94,0,0,1-1.42,3.73,7.05,7.05,0,0,1-3.27,2.29,6.85,6.85,0,0,1-5.61,5.17,7,7,0,0,1-2.56,3.07,6.44,6.44,0,0,1-1.83.83A25.47,25.47,0,0,1,270,245.05a11,11,0,0,0,1.89,4.8c2.77,3.39,7.84,3.82,7.89,3.83l3.64.17.09.27c8.63,1,14.7,2.54,18.07,4.44,6.94,3.9,9,17.37,9.56,25.7l14.07,30.19c12.55-8.71,29.69-20.7,32.21-22.76a32.44,32.44,0,0,0,3.44-3.34A28.61,28.61,0,0,1,367,283c5.31-3.38,8-3.38,13.38-3.38,3.65,0,7.4.24,9.6,3.06a6.72,6.72,0,0,1,1.13,5.93,5,5,0,0,1-.19.63l.43.17a7.87,7.87,0,0,1,6.65-3.68,7.45,7.45,0,0,1,7.05,5.38c1.77,5.41-1.06,12.94-6.31,16.79a20.21,20.21,0,0,1-7.19,3.48,11.31,11.31,0,0,1-4.17.73,17.33,17.33,0,0,1-3.86-.46h-.05l-.2,0-1.55-.15c-3-.25-8.59-1-11.95-1.45-4.44,4.49-15.66,15.73-23.64,22.86-4.27,3.81-19,16.23-29.48,16.23a10.38,10.38,0,0,1-6.15-1.83c-1.22-.87-4.63-3.31-18.17-27.08l-2.83,10.58c1.35,2.91,4.27,9.12,7.4,14.92l.57,1-4.32,2.52,4.38-2.41.83,1.48.62,1.09.64,1.08.79,1.3.6.94.57.86c.17.26.35.51.51.75a42.67,42.67,0,0,1,3.61,6.06c5.3-1.12,13.27-4.22,22.17-8.66l2.17-1.3a21.4,21.4,0,0,1,10.75-3,19.21,19.21,0,0,1,10.42,3.1,21.4,21.4,0,0,1,9.58,20.06c-1.63,15.48-15.27,22.31-30.32,28.49-3.87,1.59-8.5,3.39-13.43,5.23a8.12,8.12,0,0,1,.66,1.57,9.81,9.81,0,0,1,0,6.1,14.12,14.12,0,0,1,.51,3.76c0,6.75-9,12.22-17.08,12.6l-.82,0c-4.73,0-9-1.89-12.8-3.57a33.87,33.87,0,0,0-5.83-2.19c-1.74-.36-4.47-.61-8.59-1-2.33-.21-5-.45-8.34-.77l-.9-.1h-.1l-.34,0c-7.88,1.39-17,2.35-24.92,3.09l-9.27,2.46c-.62.16-1.32.37-2.09.6l-.1,0a49,49,0,0,1-14.19,2.57,27.27,27.27,0,0,1-7.66-1.06c-8-2.35-12.1-4.54-15.26-8.1a9.76,9.76,0,0,1-1.73-2.77,5.1,5.1,0,0,1-.47-1.36,14.65,14.65,0,0,1-.52-4.31,8.76,8.76,0,0,1-1.08-4.62,7.47,7.47,0,0,1,2-4.74c-6.26-2.3-12.17-4.57-17-6.54-15-6.18-28.68-13-30.31-28.49a21.42,21.42,0,0,1,9.58-20.07,19.23,19.23,0,0,1,10.41-3.1,21.42,21.42,0,0,1,10.55,2.93l0,0c5.67,3.1,22.25,11.46,30.88,12.89l2,.36c.13-.31.61-1.36.61-1.36.19-.41.38-.82.58-1.23l.2-.42.71-1.43.8-1.59.93-1.76.18-.34c1.28-2.4,2.71-5,4.28-7.66l1.58-2.74h0c2.92-4.94,5.64-9.25,7.19-11.68l-2.64-10.39c-9.08,16-15.23,25.15-18.33,27.37a10.38,10.38,0,0,1-6.15,1.83c-10.49,0-25.22-12.42-29.48-16.23-8-7.17-20.46-19-25.18-23.55-3.48.48-9,1.21-12.05,1.46l-1.52.15a36.53,36.53,0,0,1-4,.28,17.87,17.87,0,0,1-9.16-2.46,5.74,5.74,0,0,1-1.58-.89c-.06,0-.24-.2-.51-.45l-.28-.19c-5.24-3.85-8.07-11.38-6.3-16.79a7.44,7.44,0,0,1,7-5.37,7.86,7.86,0,0,1,6.65,3.67l.43-.17c-.07-.21-.14-.42-.19-.63a6.72,6.72,0,0,1,1.14-5.93c2.2-2.82,6-3.06,9.59-3.06,5.38,0,8.08,0,13.38,3.38a29.17,29.17,0,0,1,6.08,5.31,31.66,31.66,0,0,0,3.45,3.34c2.25,1.85,18.27,12.9,33.81,23.49l14.09-30.24a71.15,71.15,0,0,1,2.4-14.51" style="fill: rgb(146, 227, 169); transform-origin: 254.58px 287.44px;" id="elvg7c9wvg9k" class="animable"></path><g id="el33maaliw85u"><path d="M202.12,269.75c1.45-4.9,3.7-9.24,7.16-11.19,6-3.36,18.71-4.46,23.55-4.77l.62-.26.53-.24.77-.39a13.31,13.31,0,0,0,5.09-4.39,21,21,0,0,0,2-4.81,25.26,25.26,0,0,1-8.25-10.57,6.8,6.8,0,0,1-3.11-1.07,7,7,0,0,1-2.56-3.07,7,7,0,0,1-3.6-1.73,6.88,6.88,0,0,1-2-3.45,6.77,6.77,0,0,1-4.69-6,6.84,6.84,0,0,1-3.64-6.72,6.8,6.8,0,0,1-2.48-7.23,6.81,6.81,0,0,1-1.25-7.53,6.82,6.82,0,0,1,0-7.64,6.81,6.81,0,0,1,1.25-7.53,6.82,6.82,0,0,1,2.48-7.23,6.81,6.81,0,0,1,3.64-6.71,6.8,6.8,0,0,1,4.69-6,6.81,6.81,0,0,1,5.61-5.17,6.83,6.83,0,0,1,6.39-4.18,6.91,6.91,0,0,1,3-2.61,6.65,6.65,0,0,1,2.73-.57,7,7,0,0,1,1.24.11,6.87,6.87,0,0,1,3.42-2.08,6.78,6.78,0,0,1,1.62-.2,7.32,7.32,0,0,1,2.36.4,7.07,7.07,0,0,1,3.72-1.48l.54,0a7.07,7.07,0,0,1,3.35.88,7.11,7.11,0,0,1,3.36-.88l.54,0a7.11,7.11,0,0,1,3.72,1.48,7.32,7.32,0,0,1,2.36-.4,6.64,6.64,0,0,1,1.61.2,6.9,6.9,0,0,1,3.43,2.08,7.06,7.06,0,0,1,1.24-.11,6.73,6.73,0,0,1,2.74.57,6.94,6.94,0,0,1,3,2.61,6.83,6.83,0,0,1,6.39,4.18,6.93,6.93,0,0,1,3.6,1.72,7,7,0,0,1,2,3.45,6.8,6.8,0,0,1,4.69,6,6.81,6.81,0,0,1,3.64,6.71,7,7,0,0,1,2.35,3.24,6.86,6.86,0,0,1,.13,4,6.81,6.81,0,0,1,1.25,7.53,6.82,6.82,0,0,1,0,7.64,6.86,6.86,0,0,1,.53,4,7,7,0,0,1-1.78,3.59,6.8,6.8,0,0,1-2.48,7.22,6.81,6.81,0,0,1-3.64,6.72,6.94,6.94,0,0,1-1.42,3.73,7.05,7.05,0,0,1-3.27,2.29,6.85,6.85,0,0,1-5.61,5.17,7,7,0,0,1-2.56,3.07,6.44,6.44,0,0,1-1.83.83A25.47,25.47,0,0,1,270,245.05a11,11,0,0,0,1.89,4.8c2.77,3.39,7.84,3.82,7.89,3.83l3.64.17.09.27c8.63,1,14.7,2.54,18.07,4.44,6.94,3.9,9,17.37,9.56,25.7l14.07,30.19c12.55-8.71,29.69-20.7,32.21-22.76a32.44,32.44,0,0,0,3.44-3.34A28.61,28.61,0,0,1,367,283c5.31-3.38,8-3.38,13.38-3.38,3.65,0,7.4.24,9.6,3.06a6.72,6.72,0,0,1,1.13,5.93,5,5,0,0,1-.19.63l.43.17a7.87,7.87,0,0,1,6.65-3.68,7.45,7.45,0,0,1,7.05,5.38c1.77,5.41-1.06,12.94-6.31,16.79a20.21,20.21,0,0,1-7.19,3.48,11.31,11.31,0,0,1-4.17.73,17.33,17.33,0,0,1-3.86-.46h-.05l-.2,0-1.55-.15c-3-.25-8.59-1-11.95-1.45-4.44,4.49-15.66,15.73-23.64,22.86-4.27,3.81-19,16.23-29.48,16.23a10.38,10.38,0,0,1-6.15-1.83c-1.22-.87-4.63-3.31-18.17-27.08l-2.83,10.58c1.35,2.91,4.27,9.12,7.4,14.92l.57,1-4.32,2.52,4.38-2.41.83,1.48.62,1.09.64,1.08.79,1.3.6.94.57.86c.17.26.35.51.51.75a42.67,42.67,0,0,1,3.61,6.06c5.3-1.12,13.27-4.22,22.17-8.66l2.17-1.3a21.4,21.4,0,0,1,10.75-3,19.21,19.21,0,0,1,10.42,3.1,21.4,21.4,0,0,1,9.58,20.06c-1.63,15.48-15.27,22.31-30.32,28.49-3.87,1.59-8.5,3.39-13.43,5.23a8.12,8.12,0,0,1,.66,1.57,9.81,9.81,0,0,1,0,6.1,14.12,14.12,0,0,1,.51,3.76c0,6.75-9,12.22-17.08,12.6l-.82,0c-4.73,0-9-1.89-12.8-3.57a33.87,33.87,0,0,0-5.83-2.19c-1.74-.36-4.47-.61-8.59-1-2.33-.21-5-.45-8.34-.77l-.9-.1h-.1l-.34,0c-7.88,1.39-17,2.35-24.92,3.09l-9.27,2.46c-.62.16-1.32.37-2.09.6l-.1,0a49,49,0,0,1-14.19,2.57,27.27,27.27,0,0,1-7.66-1.06c-8-2.35-12.1-4.54-15.26-8.1a9.76,9.76,0,0,1-1.73-2.77,5.1,5.1,0,0,1-.47-1.36,14.65,14.65,0,0,1-.52-4.31,8.76,8.76,0,0,1-1.08-4.62,7.47,7.47,0,0,1,2-4.74c-6.26-2.3-12.17-4.57-17-6.54-15-6.18-28.68-13-30.31-28.49a21.42,21.42,0,0,1,9.58-20.07,19.23,19.23,0,0,1,10.41-3.1,21.42,21.42,0,0,1,10.55,2.93l0,0c5.67,3.1,22.25,11.46,30.88,12.89l2,.36c.13-.31.61-1.36.61-1.36.19-.41.38-.82.58-1.23l.2-.42.71-1.43.8-1.59.93-1.76.18-.34c1.28-2.4,2.71-5,4.28-7.66l1.58-2.74h0c2.92-4.94,5.64-9.25,7.19-11.68l-2.64-10.39c-9.08,16-15.23,25.15-18.33,27.37a10.38,10.38,0,0,1-6.15,1.83c-10.49,0-25.22-12.42-29.48-16.23-8-7.17-20.46-19-25.18-23.55-3.48.48-9,1.21-12.05,1.46l-1.52.15a36.53,36.53,0,0,1-4,.28,17.87,17.87,0,0,1-9.16-2.46,5.74,5.74,0,0,1-1.58-.89c-.06,0-.24-.2-.51-.45l-.28-.19c-5.24-3.85-8.07-11.38-6.3-16.79a7.44,7.44,0,0,1,7-5.37,7.86,7.86,0,0,1,6.65,3.67l.43-.17c-.07-.21-.14-.42-.19-.63a6.72,6.72,0,0,1,1.14-5.93c2.2-2.82,6-3.06,9.59-3.06,5.38,0,8.08,0,13.38,3.38a29.17,29.17,0,0,1,6.08,5.31,31.66,31.66,0,0,0,3.45,3.34c2.25,1.85,18.27,12.9,33.81,23.49l14.09-30.24a71.15,71.15,0,0,1,2.4-14.51" style="fill: rgb(255, 255, 255); opacity: 0.5; transform-origin: 254.58px 287.44px;" class="animable"></path></g><path d="M298.09,192.5c0,1.14-1.85,2.19-1.94,3.3s1.56,2.47,1.38,3.57-2.19,1.86-2.46,2.94,1.13,2.69.77,3.75-2.46,1.46-2.91,2.49.67,2.84.14,3.83-2.67,1-3.29,2,.2,2.91-.49,3.8-2.8.57-3.56,1.4-.28,2.9-1.11,3.67-2.86.11-3.75.8-.75,2.82-1.69,3.44-2.83-.36-3.82.17-1.21,2.66-2.24,3.11-2.73-.82-3.8-.45-1.63,2.41-2.72,2.69-2.56-1.26-3.68-1.08-2,2.12-3.13,2.21-2.31-1.67-3.45-1.67-2.33,1.76-3.44,1.67-2-2-3.13-2.21-2.59,1.35-3.68,1.08-1.66-2.33-2.72-2.69-2.77.9-3.8.45-1.25-2.57-2.24-3.11-2.88.44-3.82-.18-.81-2.74-1.7-3.43-2.91,0-3.74-.8-.35-2.84-1.11-3.67-2.87-.52-3.56-1.41.12-2.85-.5-3.79-2.74-1-3.28-2,.59-2.79.14-3.82-2.54-1.42-2.91-2.49,1.05-2.65.77-3.75-2.27-1.82-2.46-2.94,1.47-2.44,1.38-3.57-1.94-2.16-1.94-3.3,1.85-2.19,1.94-3.3-1.56-2.47-1.38-3.57,2.19-1.85,2.46-2.94-1.13-2.69-.77-3.75,2.46-1.46,2.91-2.49-.67-2.84-.14-3.82,2.67-1,3.29-2-.2-2.92.49-3.8,2.8-.58,3.56-1.41.28-2.9,1.11-3.66,2.86-.12,3.74-.81.76-2.81,1.7-3.43,2.83.36,3.82-.18,1.21-2.65,2.24-3.11,2.73.82,3.8.46,1.63-2.42,2.72-2.7,2.56,1.27,3.68,1.08,2-2.11,3.13-2.2,2.31,1.66,3.44,1.66,2.34-1.76,3.45-1.66,2,2,3.13,2.2,2.59-1.35,3.68-1.08,1.66,2.33,2.72,2.7,2.77-.91,3.8-.46,1.25,2.58,2.24,3.11,2.88-.44,3.82.18.81,2.74,1.7,3.43,2.91.05,3.74.81.35,2.84,1.11,3.66,2.87.52,3.56,1.41-.12,2.85.49,3.8,2.75,1,3.29,2-.6,2.79-.14,3.83,2.54,1.41,2.91,2.48-1,2.66-.77,3.75,2.27,1.82,2.46,2.94-1.47,2.44-1.38,3.57S298.09,191.37,298.09,192.5Z" style="fill: rgb(38, 50, 56); transform-origin: 256.345px 192.51px;" id="elw0keklvwh6" class="animable"></path><path d="M298.09,192.5c0,1.14-1.85,2.19-1.94,3.3s1.56,2.47,1.38,3.57-2.19,1.86-2.46,2.94,1.13,2.69.77,3.75-2.46,1.46-2.91,2.49.67,2.84.14,3.83-2.67,1-3.29,2,.2,2.91-.49,3.8-2.8.57-3.56,1.4-.28,2.9-1.11,3.67-2.86.11-3.75.8-.75,2.82-1.69,3.44-2.83-.36-3.82.17-1.21,2.66-2.24,3.11-2.73-.82-3.8-.45-1.63,2.41-2.72,2.69-2.56-1.26-3.68-1.08-2,2.12-3.13,2.21-2.31-1.67-3.45-1.67-2.33,1.76-3.44,1.67-2-2-3.13-2.21-2.59,1.35-3.68,1.08-1.66-2.33-2.72-2.69-2.77.9-3.8.45-1.25-2.57-2.24-3.11-2.88.44-3.82-.18-.81-2.74-1.7-3.43-2.91,0-3.74-.8-.35-2.84-1.11-3.67-2.87-.52-3.56-1.41.12-2.85-.5-3.79-2.74-1-3.28-2,.59-2.79.14-3.82-2.54-1.42-2.91-2.49,1.05-2.65.77-3.75-2.27-1.82-2.46-2.94,1.47-2.44,1.38-3.57-1.94-2.16-1.94-3.3,1.85-2.19,1.94-3.3-1.56-2.47-1.38-3.57,2.19-1.85,2.46-2.94-1.13-2.69-.77-3.75,2.46-1.46,2.91-2.49-.67-2.84-.14-3.82,2.67-1,3.29-2-.2-2.92.49-3.8,2.8-.58,3.56-1.41.28-2.9,1.11-3.66,2.86-.12,3.74-.81.76-2.81,1.7-3.43,2.83.36,3.82-.18,1.21-2.65,2.24-3.11,2.73.82,3.8.46,1.63-2.42,2.72-2.7,2.56,1.27,3.68,1.08,2-2.11,3.13-2.2,2.31,1.66,3.44,1.66,2.34-1.76,3.45-1.66,2,2,3.13,2.2,2.59-1.35,3.68-1.08,1.66,2.33,2.72,2.7,2.77-.91,3.8-.46,1.25,2.58,2.24,3.11,2.88-.44,3.82.18.81,2.74,1.7,3.43,2.91.05,3.74.81.35,2.84,1.11,3.66,2.87.52,3.56,1.41-.12,2.85.49,3.8,2.75,1,3.29,2-.6,2.79-.14,3.83,2.54,1.41,2.91,2.48-1,2.66-.77,3.75,2.27,1.82,2.46,2.94-1.47,2.44-1.38,3.57S298.09,191.37,298.09,192.5Z" style="fill: none; stroke: rgb(38, 50, 56); stroke-linecap: round; stroke-miterlimit: 10; transform-origin: 256.345px 192.51px;" id="el2foyrgrjn45" class="animable"></path><path d="M228.3,215l1-.12v-.13Z" style="fill: rgb(38, 50, 56); transform-origin: 228.8px 214.875px;" id="elv17ba7rlaen" class="animable"></path><path d="M234,259.24s-16.23.88-22,4.11-6.83,22.3-6.83,22.3l-17.27,37s-35.59-24.18-39.55-27.42-5-5.75-9-8.27-5.39-2.52-10.43-2.52-5.75.72-5.39,2.16,2.16,1.8,3.59,1.8a32.44,32.44,0,0,1,4.68.72l-14.39,5.75c-3.59,1.44-2.87-4.31-6.11-4.31s-2.88,8.27,2.52,12.22,9,2.88,13.3,2.52,14.39-1.8,14.39-1.8,16.89,16.28,27,25.27,23.74,17.62,28.77,14S221.33,304,221.33,304l12.23-32.37S236.88,264.83,234,259.24Z" style="fill: rgb(120, 120, 120); transform-origin: 172.202px 301.428px;" id="elbv4o9n4d5f7" class="animable"></path><path d="M234,259.24s-16.23.88-22,4.11-6.83,22.3-6.83,22.3l-17.27,37s-35.59-24.18-39.55-27.42-5-5.75-9-8.27-5.39-2.52-10.43-2.52-5.75.72-5.39,2.16,2.16,1.8,3.59,1.8a32.44,32.44,0,0,1,4.68.72l-14.39,5.75c-3.59,1.44-2.87-4.31-6.11-4.31s-2.88,8.27,2.52,12.22,9,2.88,13.3,2.52,14.39-1.8,14.39-1.8,16.89,16.28,27,25.27,23.74,17.62,28.77,14S221.33,304,221.33,304l12.23-32.37S236.88,264.83,234,259.24Z" style="fill: none; stroke: rgb(38, 50, 56); stroke-linecap: round; stroke-miterlimit: 10; transform-origin: 172.202px 301.428px;" id="eltorewsgwukn" class="animable"></path><path d="M114.8,303.63s-7-5.69-3.23-11.25c.94-1.38,3.06.7,3.61,4.45s2.5,5.27,3.47,5.55" style="fill: rgb(120, 120, 120); transform-origin: 114.553px 297.791px;" id="el5dw3qquqs7v" class="animable"></path><path d="M114.8,303.63s-7-5.69-3.23-11.25c.94-1.38,3.06.7,3.61,4.45s2.5,5.27,3.47,5.55" style="fill: none; stroke: rgb(38, 50, 56); stroke-linecap: round; stroke-miterlimit: 10; transform-origin: 114.553px 297.791px;" id="elk0vif4k70o" class="animable"></path><path d="M120,302.38c-1.66,0-1.58-4.45-4.72-6.66-2.5-1.77-2.17,1.69-1.59,4.48a5.84,5.84,0,0,0,4.7,4.6l.07,0a8.55,8.55,0,0,0,3.31.13" style="fill: rgb(120, 120, 120); transform-origin: 117.524px 300.135px;" id="el4g42l2hy1tx" class="animable"></path><path d="M120,302.38c-1.66,0-1.58-4.45-4.72-6.66-2.5-1.77-2.17,1.69-1.59,4.48a5.84,5.84,0,0,0,4.7,4.6l.07,0a8.55,8.55,0,0,0,3.31.13" style="fill: none; stroke: rgb(38, 50, 56); stroke-linecap: round; stroke-miterlimit: 10; transform-origin: 117.524px 300.135px;" id="elbrwz79vegu" class="animable"></path><path d="M141.14,295s-2.36-1.66-6.94-.14-10,8.19-11.24,7.64-1.81-1.67-2.5-3.06-2.07-3.38-3-1.78c-2.09,3.53,3.57,7.53,3.57,7.53s.79.66,5.15.13,14.27-1.85,14.27-1.85" style="fill: rgb(120, 120, 120); transform-origin: 129.068px 299.872px;" id="eln76kzq846hp" class="animable"></path><path d="M141.14,295s-2.36-1.66-6.94-.14-10,8.19-11.24,7.64-1.81-1.67-2.5-3.06-2.07-3.38-3-1.78c-2.09,3.53,3.57,7.53,3.57,7.53s.79.66,5.15.13,14.27-1.85,14.27-1.85" style="fill: none; stroke: rgb(38, 50, 56); stroke-linecap: round; stroke-miterlimit: 10; transform-origin: 129.068px 299.872px;" id="el6zvdx8n4qq" class="animable"></path><line x1="221.52" y1="296.29" x2="216.28" y2="281.27" style="fill: none; stroke: rgb(38, 50, 56); stroke-linecap: round; stroke-miterlimit: 10; transform-origin: 218.9px 288.78px;" id="elv7j9ykxlrl" class="animable"></line><path d="M276.06,258.91s17.09,1.21,22.85,4.44,6.83,22.3,6.83,22.3l17.26,37s34-23.5,37.92-26.74,5-5.76,9-8.27,5.4-2.52,10.43-2.52,5.75.72,5.4,2.16-2.16,1.8-3.6,1.8a32.86,32.86,0,0,0-4.68.71l14.39,5.76c3.6,1.44,2.88-4.32,6.11-4.32s2.88,8.27-2.51,12.23-9,2.88-13.31,2.52-14.39-1.8-14.39-1.8-15.26,15.6-25.33,24.59-23.73,17.62-28.77,14S289.56,304,289.56,304l-12.23-32.37S273.14,264.5,276.06,258.91Z" style="fill: rgb(120, 120, 120); transform-origin: 337.531px 301.263px;" id="elnk6i9omk6l" class="animable"></path><path d="M276.06,258.91s17.09,1.21,22.85,4.44,6.83,22.3,6.83,22.3l17.26,37s34-23.5,37.92-26.74,5-5.76,9-8.27,5.4-2.52,10.43-2.52,5.75.72,5.4,2.16-2.16,1.8-3.6,1.8a32.86,32.86,0,0,0-4.68.71l14.39,5.76c3.6,1.44,2.88-4.32,6.11-4.32s2.88,8.27-2.51,12.23-9,2.88-13.31,2.52-14.39-1.8-14.39-1.8-15.26,15.6-25.33,24.59-23.73,17.62-28.77,14S289.56,304,289.56,304l-12.23-32.37S273.14,264.5,276.06,258.91Z" style="fill: none; stroke: rgb(38, 50, 56); stroke-linecap: round; stroke-miterlimit: 10; transform-origin: 337.531px 301.263px;" id="el4xrjiibetux" class="animable"></path><line x1="289.62" y1="293.14" x2="293.82" y2="280.92" style="fill: none; stroke: rgb(38, 50, 56); stroke-linecap: round; stroke-miterlimit: 10; transform-origin: 291.72px 287.03px;" id="el6f5p0tg5jx4" class="animable"></line><path d="M396.57,302.12s3.64-5.45,1.11-9.06c-1-1.37-3.05.69-3.61,4.44s-2.5,5.28-3.47,5.56" style="fill: rgb(120, 120, 120); transform-origin: 394.587px 297.847px;" id="eltr82t88ayjc" class="animable"></path><path d="M396.57,302.12s3.64-5.45,1.11-9.06c-1-1.37-3.05.69-3.61,4.44s-2.5,5.28-3.47,5.56" style="fill: none; stroke: rgb(38, 50, 56); stroke-linecap: round; stroke-miterlimit: 10; transform-origin: 394.587px 297.847px;" id="eljqre112hau8" class="animable"></path><path d="M393.3,304.55s4.38-11.49,0-8.65c-3.23,2.08-2.41,7.16-4.08,7.16" style="fill: rgb(120, 120, 120); transform-origin: 392.233px 299.999px;" id="elll7xn1orb1g" class="animable"></path><path d="M393.3,304.55s4.38-11.49,0-8.65c-3.23,2.08-2.41,7.16-4.08,7.16" style="fill: none; stroke: rgb(38, 50, 56); stroke-linecap: round; stroke-miterlimit: 10; transform-origin: 392.233px 299.999px;" id="eldag7f8bx52c" class="animable"></path><path d="M368.11,295.7s2.36-1.67,6.94-.14,10,8.19,11.25,7.63,1.8-1.66,2.5-3.05,1.94-2.22,2.77-.55-1.66,6.52-1.66,6.52-1.5,1.07-5.19.22-10.38-2.09-12.65-2.09" style="fill: rgb(120, 120, 120); transform-origin: 379.925px 300.786px;" id="elx4kquv8vmi" class="animable"></path><path d="M368.11,295.7s2.36-1.67,6.94-.14,10,8.19,11.25,7.63,1.8-1.66,2.5-3.05,1.94-2.22,2.77-.55-1.66,6.52-1.66,6.52-1.5,1.07-5.19.22-10.38-2.09-12.65-2.09" style="fill: none; stroke: rgb(38, 50, 56); stroke-linecap: round; stroke-miterlimit: 10; transform-origin: 379.925px 300.786px;" id="ellcc5j0eyzk" class="animable"></path><path d="M248.72,237.35s-.74,8.36-4.18,14S234,259.24,234,259.24l-14,43,7.38,29s-13,19.92-18.2,32,1,25.69,6.45,31.35,12.59,13.31,30.93,12.59c25.53-1,43.67,1.32,51.79-8.27s9-27.7-.72-41.36c-5.9-8.31-13.93-26.28-13.93-26.28l8-29.92-12.21-42.22s-7.34-.42-11.76-5.83-3.45-15.25-3.45-15.25Z" style="fill: rgb(120, 120, 120); stroke: rgb(38, 50, 56); stroke-linecap: round; stroke-miterlimit: 10; transform-origin: 255.951px 322.289px;" id="eluma5kecn35i" class="animable"></path><path d="M256.93,248.77a20.05,20.05,0,0,0,7.91-1.63,31.46,31.46,0,0,1-.63-9.06l-15.49-.73a44.68,44.68,0,0,1-1.84,8.72A20.16,20.16,0,0,0,256.93,248.77Z" style="fill: rgb(38, 50, 56); transform-origin: 255.86px 243.06px;" id="el3qvm0rsykr2" class="animable"></path><path d="M291.63,301.38l-12.21-42.22a18.52,18.52,0,0,1-3.61-.6c1.4,9.8-.28,14.69-.28,14.69a13.54,13.54,0,0,1-6.89,10.33c-6.64,3.94-19.18,4.68-27-1.72-5.94-4.82-4.88-18-4-24.24a22.3,22.3,0,0,1-3.63,1.62l-14,43,7.38,29h56.32Z" style="fill: rgb(146, 227, 169); stroke: rgb(38, 50, 56); stroke-linecap: round; stroke-miterlimit: 10; transform-origin: 255.82px 294.43px;" id="el2a8zlasq5m4" class="animable"></path><path d="M236.8,217.81s-4.58-5.88-6.1-1.52,6.32,8.27,6.32,8.27Z" style="fill: rgb(120, 120, 120); transform-origin: 233.762px 219.62px;" id="el9vbj1hxwpii" class="animable"></path><path d="M236.8,217.81s-4.58-5.88-6.1-1.52,6.32,8.27,6.32,8.27Z" style="fill: none; stroke: rgb(38, 50, 56); stroke-linecap: round; stroke-miterlimit: 10; transform-origin: 233.762px 219.62px;" id="elv1rerskvwfp" class="animable"></path><path d="M276.68,217.81s4.57-5.88,6.1-1.52-6.32,8.27-6.32,8.27Z" style="fill: rgb(120, 120, 120); transform-origin: 279.719px 219.62px;" id="eloxfqudjmujg" class="animable"></path><path d="M276.68,217.81s4.57-5.88,6.1-1.52-6.32,8.27-6.32,8.27Z" style="fill: none; stroke: rgb(38, 50, 56); stroke-linecap: round; stroke-miterlimit: 10; transform-origin: 279.719px 219.62px;" id="el5qhjokovg6q" class="animable"></path><path d="M256.93,243.21h0a19.78,19.78,0,0,1-19.78-19.78V193a7.37,7.37,0,0,1,7.38-7.37h24.81a7.37,7.37,0,0,1,7.37,7.37v30.39A19.77,19.77,0,0,1,256.93,243.21Z" style="fill: rgb(120, 120, 120); stroke: rgb(38, 50, 56); stroke-linecap: round; stroke-miterlimit: 10; transform-origin: 256.93px 214.42px;" id="eld9am8c7mh6o" class="animable"></path><path d="M242.24,210s3.92,3.05,9.15,0" style="fill: none; stroke: rgb(38, 50, 56); stroke-linecap: round; stroke-miterlimit: 10; transform-origin: 246.815px 210.678px;" id="elfix2emvewdf" class="animable"></path><path d="M262.72,210s3.92,3.05,9.15,0" style="fill: none; stroke: rgb(38, 50, 56); stroke-linecap: round; stroke-miterlimit: 10; transform-origin: 267.295px 210.678px;" id="els0xye6xbfga" class="animable"></path><polyline points="258.8 206.7 260.11 219.34 254.88 219.34" style="fill: none; stroke: rgb(38, 50, 56); stroke-linecap: round; stroke-miterlimit: 10; transform-origin: 257.495px 213.02px;" id="eld2bpa29mlyi" class="animable"></polyline><line x1="255.1" y1="226.52" x2="260.32" y2="226.52" style="fill: none; stroke: rgb(38, 50, 56); stroke-linecap: round; stroke-miterlimit: 10; transform-origin: 257.71px 226.52px;" id="elhwpskuqo3pq" class="animable"></line><path d="M241.37,204.09s2.4-4.14,9.8-3.49" style="fill: none; stroke: rgb(38, 50, 56); stroke-linecap: round; stroke-miterlimit: 10; stroke-width: 2px; transform-origin: 246.27px 202.31px;" id="elmfqug9ms9" class="animable"></path><path d="M261.19,200.6a9.28,9.28,0,0,1,11.33,3.49" style="fill: none; stroke: rgb(38, 50, 56); stroke-linecap: round; stroke-miterlimit: 10; stroke-width: 2px; transform-origin: 266.855px 201.989px;" id="elgsj86lf5ezs" class="animable"></path><path d="M209.12,363.27c-5.16,12.05,1,25.69,6.45,31.35s12.59,13.31,30.93,12.59c25.53-1,43.67,1.32,51.79-8.27s9-27.7-.72-41.36a100.76,100.76,0,0,1-6-10.07H217.35A159.6,159.6,0,0,0,209.12,363.27Z" style="fill: rgb(255, 255, 255); stroke: rgb(38, 50, 56); stroke-linecap: round; stroke-miterlimit: 10; transform-origin: 255.899px 377.384px;" id="el44ihh7x09ae" class="animable"></path><path d="M249.38,387.67c-12.95-13.43-36.44-20.14-47.95-22.06s-32.61-13.49-32.61-13.49-12.47-.42-11.51,14.45,36.93,32.13,50.83,39.8a44.94,44.94,0,0,0,41.24,1.44" style="fill: rgb(255, 255, 255); stroke: rgb(38, 50, 56); stroke-linecap: round; stroke-miterlimit: 10; transform-origin: 203.319px 382.125px;" id="el2dtojq9ut7w" class="animable"></path><path d="M257.48,388.15c12.95-13.43,36.44-20.14,47.95-22.06s29.42-11.73,29.42-11.73,15.65-2.18,14.7,12.69-36.93,32.12-50.83,39.8a44.94,44.94,0,0,1-41.24,1.44" style="fill: rgb(255, 255, 255); stroke: rgb(38, 50, 56); stroke-linecap: round; stroke-miterlimit: 10; transform-origin: 303.536px 383.429px;" id="elzie2g58bh1" class="animable"></path><path d="M311.5,411.62s1.77-1.19.89-4.15-5.63-.59-8.88-.59-15.69-1.18-21.61-1.77c-5.06-.51-13.34-.37-15.65-.32a18.62,18.62,0,0,1-2.14,10.49c-1.11-.1,2.3.23,1.15.12,10.07,1,14.45,1.19,17.53,1.84,5.62,1.19,11.84,5.92,18,5.63s11.84-4.44,11.84-7.11A7,7,0,0,0,311.5,411.62Z" style="fill: rgb(120, 120, 120); transform-origin: 288.261px 413.808px;" id="el0skdc6ab8xcl" class="animable"></path><path d="M311.5,411.62s1.77-1.19.89-4.15-5.63-.59-8.88-.59-15.69-1.18-21.61-1.77c-5.06-.51-13.34-.37-15.65-.32a18.62,18.62,0,0,1-2.14,10.49c-1.11-.1,2.3.23,1.15.12,10.07,1,14.45,1.19,17.53,1.84,5.62,1.19,11.84,5.92,18,5.63s11.84-4.44,11.84-7.11A7,7,0,0,0,311.5,411.62Z" style="fill: none; stroke: rgb(38, 50, 56); stroke-linecap: round; stroke-miterlimit: 10; transform-origin: 288.261px 413.808px;" id="elwlwzrrcf9qd" class="animable"></path><path d="M265.9,404.8h0Z" style="fill: rgb(255, 255, 255); stroke: rgb(38, 50, 56); stroke-linecap: round; stroke-miterlimit: 10; transform-origin: 265.9px 404.8px;" id="elrxg0iku4e69" class="animable"></path><path d="M265.62,404.81h0Z" style="fill: rgb(255, 255, 255); stroke: rgb(38, 50, 56); stroke-linecap: round; stroke-miterlimit: 10; transform-origin: 265.62px 404.81px;" id="eloo03xhl5np" class="animable"></path><path d="M311.5,411.62a15.77,15.77,0,0,1-5.22,0" style="fill: none; stroke: rgb(38, 50, 56); stroke-linecap: round; stroke-miterlimit: 10; transform-origin: 308.89px 411.729px;" id="els4phmpbt4r" class="animable"></path><path d="M312.68,415.76a43.94,43.94,0,0,1-6.88.05" style="fill: none; stroke: rgb(38, 50, 56); stroke-linecap: round; stroke-miterlimit: 10; transform-origin: 309.24px 415.841px;" id="eluwab7ht1k7" class="animable"></path><path d="M304.64,418.41a7.94,7.94,0,0,0,5.31.87" style="fill: none; stroke: rgb(38, 50, 56); stroke-linecap: round; stroke-miterlimit: 10; transform-origin: 307.295px 418.911px;" id="elhgm4y93ozck" class="animable"></path><path d="M302.32,420.34c.29,0,1.16,1,4.92.78" style="fill: none; stroke: rgb(38, 50, 56); stroke-linecap: round; stroke-miterlimit: 10; transform-origin: 304.78px 420.746px;" id="elbzdwrc2ca3h" class="animable"></path><path d="M264.11,415.28a18.62,18.62,0,0,0,2.14-10.49l-.63,0s-22.8-4.74-41.74-16.28S181,359.22,168.82,352.12s-23.68,3.55-22.49,14.8,10.36,17.17,26.93,24S220,408.36,236,411.62C244.26,413.3,254.93,414.42,264.11,415.28Z" style="fill: rgb(255, 255, 255); stroke: rgb(38, 50, 56); stroke-linecap: round; stroke-miterlimit: 10; transform-origin: 206.286px 382.554px;" id="elbc46ulx7pxp" class="animable"></path><path d="M237.49,418.4a18.62,18.62,0,0,1-2.14-10.49l.63,0s22.8-4.74,41.74-16.28,42.92-29.31,55.06-36.41,23.68,3.55,22.5,14.8-10.36,17.17-26.94,24-46.77,17.47-62.75,20.73C257.35,416.41,246.67,417.54,237.49,418.4Z" style="fill: rgb(255, 255, 255); stroke: rgb(38, 50, 56); stroke-linecap: round; stroke-miterlimit: 10; transform-origin: 295.319px 385.664px;" id="el2men0januht" class="animable"></path><path d="M235.35,407.91s-21.93.86-28.89.38-12.22-3.84-14.14-2.16.48,4.31.48,4.31-.72,4.08,1.2,6.24,4.55,4.07,12.7,6.47,16.54-1,21.09-2.18l9.7-2.57S235.23,415,235.35,407.91Z" style="fill: rgb(120, 120, 120); transform-origin: 214.533px 414.826px;" id="ele91eydlxhbq" class="animable"></path><path d="M235.35,407.91s-21.93.86-28.89.38-12.22-3.84-14.14-2.16.48,4.31.48,4.31-.72,4.08,1.2,6.24,4.55,4.07,12.7,6.47,16.54-1,21.09-2.18l9.7-2.57S235.23,415,235.35,407.91Z" style="fill: none; stroke: rgb(38, 50, 56); stroke-linecap: round; stroke-miterlimit: 10; transform-origin: 214.533px 414.826px;" id="eloxtdpv8u3c" class="animable"></path><path d="M192.8,410.44a3,3,0,0,1,3.35,0,9.24,9.24,0,0,0,3.84,1.44" style="fill: none; stroke: rgb(38, 50, 56); stroke-linecap: round; stroke-miterlimit: 10; transform-origin: 196.395px 410.904px;" id="el82hqluo1exc" class="animable"></path><path d="M193.07,415.1a3.11,3.11,0,0,1,2.87-.71,13.67,13.67,0,0,0,3.52.5" style="fill: none; stroke: rgb(38, 50, 56); stroke-linecap: round; stroke-miterlimit: 10; transform-origin: 196.265px 414.696px;" id="elnaknehmzbre" class="animable"></path><path d="M196.73,418.91s.43-1.22,1.22-1.22,4.1.43,5,.36" style="fill: none; stroke: rgb(38, 50, 56); stroke-linecap: round; stroke-miterlimit: 10; transform-origin: 199.84px 418.3px;" id="elnndipymlcqt" class="animable"></path><path d="M201.4,421.28s.79-1.08,1.58-1.15a27.37,27.37,0,0,1,2.73-.22" style="fill: none; stroke: rgb(38, 50, 56); stroke-linecap: round; stroke-miterlimit: 10; transform-origin: 203.555px 420.595px;" id="elavf8szv6lfl" class="animable"></path><path d="M234.72,198.34c1.21.26.85,1.66,2.41,1.4.69-.12,1.18-2.05,2.11-2.23.74-.14,1.91,1.47,2.78,1.28s1.18-2.1,2-2.3,2,1.39,2.83,1.18,1.12-2.15,1.94-2.37,2.06,1.31,2.87,1.07,1-2.19,1.85-2.44,2.12,1.22,2.91.95,1-2.24,1.74-2.52,2.19,1.12,3,.82.86-2.29,1.62-2.61,2.25,1,3,.66.73-2.33,1.47-2.69,2.3.86,3,.47.57-2.37,1.28-2.79,2.37.69,3.07.25.36-2.41,1-2.89,2.59.3,3.23-.21c.27-.35-1.64-.78-1.69-1.33,0-.25,1.74-.74,1.7-1.07s-1.87-.32-1.91-.64,1.7-.84,1.65-1.14-1.88-.25-1.93-.55,1.66-.92,1.6-1.22-1.89-.17-2-.47,1.62-1,1.55-1.28-1.9-.09-2-.38,1.56-1.09,1.47-1.37-1.89,0-2-.25,1.49-1.2,1.38-1.47-1.89.16-2-.1,1.38-1.32,1.25-1.58-1.87.34-2,.09,1.22-1.47,1.06-1.71-1.8.57-2,.35,1-1.64.8-1.85-1.67.88-1.89.69c-.49-.42-.28-2.33-1.18-2.67-.67-.25-2,1.25-2.82,1.05s-1.17-2.09-2-2.22-1.76,1.59-2.59,1.51-1.45-1.93-2.27-2-1.62,1.75-2.44,1.74-1.61-1.8-2.42-1.77-1.5,1.88-2.3,1.93-1.75-1.67-2.55-1.59-1.36,2-2.15,2.1-1.88-1.54-2.67-1.39-1.2,2.09-2,2.27-2-1.37-2.78-1.15-1,2.19-1.74,2.45-2.16-1.13-2.89-.82-.7,2.29-1.4,2.65-2.32-.79-3-.37-.28,2.37-.89,2.86-2.45-.26-3,.31c-.36.38.69,1.94.39,2.33s-2.1-.17-2.35.25,1.11,1.72.92,2.18-2.08.34-2.22.82,1.51,1.38,1.44,1.87-1.92.85-1.94,1.35,1.8,1,1.84,1.48-1.68,1.24-1.59,1.74,2,.6,2.1,1.09-1.44,1.52-1.27,2,2,.3,2.24.76-1.22,1.7-1,2.15,2.07.05,2.32.49-1,1.82-.77,2.23,2.07-.13,2.35.27-.86,1.91-.57,2.3,2.07-.29,2.37.07-.68,2-.39,2.33C233.45,199.43,234,198.18,234.72,198.34Z" style="fill: rgb(38, 50, 56); transform-origin: 251.938px 181.751px;" id="elvtkpq4jihf" class="animable"></path><path d="M234.72,198.34c1.21.26.85,1.66,2.41,1.4.69-.12,1.18-2.05,2.11-2.23.74-.14,1.91,1.47,2.78,1.28s1.18-2.1,2-2.3,2,1.39,2.83,1.18,1.12-2.15,1.94-2.37,2.06,1.31,2.87,1.07,1-2.19,1.85-2.44,2.12,1.22,2.91.95,1-2.24,1.74-2.52,2.19,1.12,3,.82.86-2.29,1.62-2.61,2.25,1,3,.66.73-2.33,1.47-2.69,2.3.86,3,.47.57-2.37,1.28-2.79,2.37.69,3.07.25.36-2.41,1-2.89,2.59.3,3.23-.21c.27-.35-1.64-.78-1.69-1.33,0-.25,1.74-.74,1.7-1.07s-1.87-.32-1.91-.64,1.7-.84,1.65-1.14-1.88-.25-1.93-.55,1.66-.92,1.6-1.22-1.89-.17-2-.47,1.62-1,1.55-1.28-1.9-.09-2-.38,1.56-1.09,1.47-1.37-1.89,0-2-.25,1.49-1.2,1.38-1.47-1.89.16-2-.1,1.38-1.32,1.25-1.58-1.87.34-2,.09,1.22-1.47,1.06-1.71-1.8.57-2,.35,1-1.64.8-1.85-1.67.88-1.89.69c-.49-.42-.28-2.33-1.18-2.67-.67-.25-2,1.25-2.82,1.05s-1.17-2.09-2-2.22-1.76,1.59-2.59,1.51-1.45-1.93-2.27-2-1.62,1.75-2.44,1.74-1.61-1.8-2.42-1.77-1.5,1.88-2.3,1.93-1.75-1.67-2.55-1.59-1.36,2-2.15,2.1-1.88-1.54-2.67-1.39-1.2,2.09-2,2.27-2-1.37-2.78-1.15-1,2.19-1.74,2.45-2.16-1.13-2.89-.82-.7,2.29-1.4,2.65-2.32-.79-3-.37-.28,2.37-.89,2.86-2.45-.26-3,.31c-.36.38.69,1.94.39,2.33s-2.1-.17-2.35.25,1.11,1.72.92,2.18-2.08.34-2.22.82,1.51,1.38,1.44,1.87-1.92.85-1.94,1.35,1.8,1,1.84,1.48-1.68,1.24-1.59,1.74,2,.6,2.1,1.09-1.44,1.52-1.27,2,2,.3,2.24.76-1.22,1.7-1,2.15,2.07.05,2.32.49-1,1.82-.77,2.23,2.07-.13,2.35.27-.86,1.91-.57,2.3,2.07-.29,2.37.07-.68,2-.39,2.33C233.45,199.43,234,198.18,234.72,198.34Z" style="fill: none; stroke: rgb(38, 50, 56); stroke-miterlimit: 10; transform-origin: 251.938px 181.751px;" id="elubaovgmeta8" class="animable"></path></g><defs>     <filter id="active" height="200%">         <feMorphology in="SourceAlpha" result="DILATED" operator="dilate" radius="2"></feMorphology>                <feFlood flood-color="#32DFEC" flood-opacity="1" result="PINK"></feFlood>        <feComposite in="PINK" in2="DILATED" operator="in" result="OUTLINE"></feComposite>        <feMerge>            <feMergeNode in="OUTLINE"></feMergeNode>            <feMergeNode in="SourceGraphic"></feMergeNode>        </feMerge>    </filter>    <filter id="hover" height="200%">        <feMorphology in="SourceAlpha" result="DILATED" operator="dilate" radius="2"></feMorphology>                <feFlood flood-color="#ff0000" flood-opacity="0.5" result="PINK"></feFlood>        <feComposite in="PINK" in2="DILATED" operator="in" result="OUTLINE"></feComposite>        <feMerge>            <feMergeNode in="OUTLINE"></feMergeNode>            <feMergeNode in="SourceGraphic"></feMergeNode>        </feMerge>            <feColorMatrix type="matrix" values="0   0   0   0   0                0   1   0   0   0                0   0   0   0   0                0   0   0   1   0 "></feColorMatrix>    </filter></defs></svg>