<svg class="animated" id="freepik_stories-breathing-exercise" xmlns="http://www.w3.org/2000/svg" viewBox="0 0 500 500" version="1.1" xmlns:xlink="http://www.w3.org/1999/xlink" xmlns:svgjs="http://svgjs.com/svgjs"><style>svg#freepik_stories-breathing-exercise:not(.animated) .animable {opacity: 0;}svg#freepik_stories-breathing-exercise.animated #freepik--Character--inject-144 {animation: 1s 1 forwards cubic-bezier(.36,-0.01,.5,1.38) slideDown,1.5s Infinite  linear floating;animation-delay: 0s,1s;}svg#freepik_stories-breathing-exercise.animated #freepik--Floor--inject-144 {animation: 1s 1 forwards cubic-bezier(.36,-0.01,.5,1.38) slideDown;animation-delay: 0s;}            @keyframes slideDown {                0% {                    opacity: 0;                    transform: translateY(-30px);                }                100% {                    opacity: 1;                    transform: translateY(0);                }            }                    @keyframes floating {                0% {                    opacity: 1;                    transform: translateY(0px);                }                50% {                    transform: translateY(-10px);                }                100% {                    opacity: 1;                    transform: translateY(0px);                }            }        </style><g id="freepik--background-simple--inject-144" class="animable" style="transform-origin: 249.231px 253.463px;"><g id="el9xidgaanxlv" class="animable" style="transform-origin: 249.231px 253.463px;"><path d="M452.28,118.76c-1.66-2.76-3.38-5.47-5.19-8.12-24-35.26-63.95-59.4-102.77-70.33-17.01-4.8-34.47-7.31-51.9-7.95-114.34-4.15-156.35,90.12-193.19,114.43C62.39,171.1,5.85,212.62,12.95,299.84c5.38,66.32,43.11,129.73,112.01,158.58,7.59,3.19,15.56,5.96,23.91,8.25,15.53,4.27,32.36,6.96,50.5,7.76,52.09,2.32,94.39-10.24,135.76-41.86,9.62-7.35,19.18-15.64,31.66-16.55,9.07-.66,17.67,2.6,8.19,11.37-11.14,10.3,1.71,30.57,30.01,16.49,47.25-23.52,66.69-74.26,75.85-125.85,11.24-63.33,5.79-142.09-28.56-199.27Z" style="fill: rgb(146, 227, 169); transform-origin: 249.231px 253.463px;" id="eljvblw8mmxh9" class="animable"></path><g id="elxyyi2trgbld"><path d="M452.28,118.76c-1.66-2.76-3.38-5.47-5.19-8.12-24-35.26-63.95-59.4-102.77-70.33-17.01-4.8-34.47-7.31-51.9-7.95-114.34-4.15-156.35,90.12-193.19,114.43C62.39,171.1,5.85,212.62,12.95,299.84c5.38,66.32,43.11,129.73,112.01,158.58,7.59,3.19,15.56,5.96,23.91,8.25,15.53,4.27,32.36,6.96,50.5,7.76,52.09,2.32,94.39-10.24,135.76-41.86,9.62-7.35,19.18-15.64,31.66-16.55,9.07-.66,17.67,2.6,8.19,11.37-11.14,10.3,1.71,30.57,30.01,16.49,47.25-23.52,66.69-74.26,75.85-125.85,11.24-63.33,5.79-142.09-28.56-199.27Z" style="fill: rgb(255, 255, 255); opacity: 0.7; transform-origin: 249.231px 253.463px;" class="animable"></path></g></g></g><g id="freepik--Picture--inject-144" class="animable" style="transform-origin: 444.86px 102.255px;"><g id="elagimlx1abgu"><g style="opacity: 0.3; transform-origin: 444.86px 102.255px;" class="animable"><rect x="405.33" y="53.85" width="79.06" height="96.81" style="fill: rgb(173, 173, 173); stroke: rgb(0, 0, 0); stroke-linecap: round; stroke-linejoin: round; transform-origin: 444.86px 102.255px;" id="elg1rm3gr2th" class="animable"></rect><rect x="409.42" y="58.86" width="70.88" height="86.79" style="fill: rgb(255, 255, 255); stroke: rgb(0, 0, 0); stroke-linecap: round; stroke-linejoin: round; transform-origin: 444.86px 102.255px;" id="elg7pp38dac9" class="animable"></rect><rect x="429.01" y="82.85" width="31.7" height="38.81" style="fill: rgb(173, 173, 173); stroke: rgb(0, 0, 0); stroke-linecap: round; stroke-linejoin: round; transform-origin: 444.86px 102.255px;" id="eld3u46331rqb" class="animable"></rect></g></g></g><g id="freepik--Doors--inject-144" class="animable" style="transform-origin: 249.985px 218.695px;"><g id="eltzpe8d4ckzo"><g style="opacity: 0.3; transform-origin: 249.985px 218.695px;" class="animable"><g id="el1dozxvj8y4c" class="animable" style="transform-origin: 176.79px 218.695px;"><rect x="103.6" y="33.51" width="146.38" height="370.37" style="fill: rgb(173, 173, 173); stroke: rgb(0, 0, 0); stroke-linecap: round; stroke-linejoin: round; transform-origin: 176.79px 218.695px;" id="elau1an20flgh" class="animable"></rect><g id="elj7hjixz0jb8" class="animable" style="transform-origin: 176.795px 216.08px;"><rect x="180.16" y="223.17" width="51.25" height="49.23" style="fill: rgb(255, 255, 255); stroke: rgb(0, 0, 0); stroke-linecap: round; stroke-linejoin: round; transform-origin: 205.785px 247.785px;" id="elscntjf8py9" class="animable"></rect><rect x="180.16" y="112.05" width="51.25" height="49.23" style="fill: rgb(255, 255, 255); stroke: rgb(0, 0, 0); stroke-linecap: round; stroke-linejoin: round; transform-origin: 205.785px 136.665px;" id="elh30w8ri2qcf" class="animable"></rect><rect x="180.16" y="278.73" width="51.25" height="49.23" style="fill: rgb(255, 255, 255); stroke: rgb(0, 0, 0); stroke-linecap: round; stroke-linejoin: round; transform-origin: 205.785px 303.345px;" id="elmm3jeim6n0h" class="animable"></rect><rect x="180.16" y="55.96" width="51.25" height="49.76" style="fill: rgb(255, 255, 255); stroke: rgb(0, 0, 0); stroke-linecap: round; stroke-linejoin: round; transform-origin: 205.785px 80.84px;" id="elynx0ybbeqf" class="animable"></rect><rect x="122.18" y="55.96" width="51.25" height="49.76" style="fill: rgb(255, 255, 255); stroke: rgb(0, 0, 0); stroke-linecap: round; stroke-linejoin: round; transform-origin: 147.805px 80.84px;" id="el0vhlho9kc2rm" class="animable"></rect><rect x="180.16" y="167.61" width="51.25" height="49.23" style="fill: rgb(255, 255, 255); stroke: rgb(0, 0, 0); stroke-linecap: round; stroke-linejoin: round; transform-origin: 205.785px 192.225px;" id="elhnjp3vhiuzl" class="animable"></rect><rect x="122.18" y="167.61" width="51.25" height="49.23" style="fill: rgb(255, 255, 255); stroke: rgb(0, 0, 0); stroke-linecap: round; stroke-linejoin: round; transform-origin: 147.805px 192.225px;" id="elhzaazbqjkbv" class="animable"></rect><rect x="180.16" y="334.3" width="51.25" height="41.9" style="fill: rgb(255, 255, 255); stroke: rgb(0, 0, 0); stroke-linecap: round; stroke-linejoin: round; transform-origin: 205.785px 355.25px;" id="eltu9ra60qzq" class="animable"></rect><rect x="122.18" y="278.73" width="51.25" height="49.23" style="fill: rgb(255, 255, 255); stroke: rgb(0, 0, 0); stroke-linecap: round; stroke-linejoin: round; transform-origin: 147.805px 303.345px;" id="elobwfj8ttm4n" class="animable"></rect><rect x="122.18" y="334.3" width="51.25" height="41.9" style="fill: rgb(255, 255, 255); stroke: rgb(0, 0, 0); stroke-linecap: round; stroke-linejoin: round; transform-origin: 147.805px 355.25px;" id="el9vyp66y4mqo" class="animable"></rect><rect x="122.18" y="223.17" width="51.25" height="49.23" style="fill: rgb(255, 255, 255); stroke: rgb(0, 0, 0); stroke-linecap: round; stroke-linejoin: round; transform-origin: 147.805px 247.785px;" id="el0pdpopcrs2yj" class="animable"></rect><rect x="122.18" y="112.05" width="51.25" height="49.23" style="fill: rgb(255, 255, 255); stroke: rgb(0, 0, 0); stroke-linecap: round; stroke-linejoin: round; transform-origin: 147.805px 136.665px;" id="eludge1tu22cj" class="animable"></rect></g><line x1="111.37" y1="34.26" x2="111.37" y2="403.55" style="fill: none; stroke: rgb(0, 0, 0); stroke-linecap: round; stroke-linejoin: round; transform-origin: 111.37px 218.905px;" id="elopaj79zwhw" class="animable"></line></g><g id="elf827j66za9w" class="animable" style="transform-origin: 323.18px 218.695px;"><g id="eljlydyz30yh8"><rect x="249.99" y="33.51" width="146.38" height="370.37" style="fill: rgb(173, 173, 173); stroke: rgb(0, 0, 0); stroke-linecap: round; stroke-linejoin: round; transform-origin: 323.18px 218.695px; transform: rotate(180deg);" class="animable"></rect></g><g id="elyg1607sxgt" class="animable" style="transform-origin: 323.175px 216.08px;"><rect x="268.56" y="223.17" width="51.25" height="49.23" style="fill: rgb(255, 255, 255); stroke: rgb(0, 0, 0); stroke-linecap: round; stroke-linejoin: round; transform-origin: 294.185px 247.785px;" id="elq3ktk9ubytf" class="animable"></rect><rect x="268.56" y="112.05" width="51.25" height="49.23" style="fill: rgb(255, 255, 255); stroke: rgb(0, 0, 0); stroke-linecap: round; stroke-linejoin: round; transform-origin: 294.185px 136.665px;" id="el2fz9h2ewfjo" class="animable"></rect><rect x="268.56" y="278.73" width="51.25" height="49.23" style="fill: rgb(255, 255, 255); stroke: rgb(0, 0, 0); stroke-linecap: round; stroke-linejoin: round; transform-origin: 294.185px 303.345px;" id="el6n4y25qn7s5" class="animable"></rect><rect x="268.56" y="55.96" width="51.25" height="49.76" style="fill: rgb(255, 255, 255); stroke: rgb(0, 0, 0); stroke-linecap: round; stroke-linejoin: round; transform-origin: 294.185px 80.84px;" id="el1qmslax5mn9" class="animable"></rect><rect x="326.54" y="55.96" width="51.25" height="49.76" style="fill: rgb(255, 255, 255); stroke: rgb(0, 0, 0); stroke-linecap: round; stroke-linejoin: round; transform-origin: 352.165px 80.84px;" id="elledyue9u8" class="animable"></rect><rect x="268.56" y="167.61" width="51.25" height="49.23" style="fill: rgb(255, 255, 255); stroke: rgb(0, 0, 0); stroke-linecap: round; stroke-linejoin: round; transform-origin: 294.185px 192.225px;" id="eldukts13xfi8" class="animable"></rect><rect x="326.54" y="167.61" width="51.25" height="49.23" style="fill: rgb(255, 255, 255); stroke: rgb(0, 0, 0); stroke-linecap: round; stroke-linejoin: round; transform-origin: 352.165px 192.225px;" id="elv5xqsr7kl6" class="animable"></rect><rect x="268.56" y="334.3" width="51.25" height="41.9" style="fill: rgb(255, 255, 255); stroke: rgb(0, 0, 0); stroke-linecap: round; stroke-linejoin: round; transform-origin: 294.185px 355.25px;" id="ely9nepyoo5ul" class="animable"></rect><rect x="326.54" y="278.73" width="51.25" height="49.23" style="fill: rgb(255, 255, 255); stroke: rgb(0, 0, 0); stroke-linecap: round; stroke-linejoin: round; transform-origin: 352.165px 303.345px;" id="elmekoqc7ablk" class="animable"></rect><rect x="326.54" y="334.3" width="51.25" height="41.9" style="fill: rgb(255, 255, 255); stroke: rgb(0, 0, 0); stroke-linecap: round; stroke-linejoin: round; transform-origin: 352.165px 355.25px;" id="elg3mqvz334hp" class="animable"></rect><rect x="326.54" y="223.17" width="51.25" height="49.23" style="fill: rgb(255, 255, 255); stroke: rgb(0, 0, 0); stroke-linecap: round; stroke-linejoin: round; transform-origin: 352.165px 247.785px;" id="elfq7hy0t0xab" class="animable"></rect><rect x="326.54" y="112.05" width="51.25" height="49.23" style="fill: rgb(255, 255, 255); stroke: rgb(0, 0, 0); stroke-linecap: round; stroke-linejoin: round; transform-origin: 352.165px 136.665px;" id="elra7ehqeu9sm" class="animable"></rect></g><line x1="388.6" y1="34.26" x2="388.6" y2="403.55" style="fill: none; stroke: rgb(0, 0, 0); stroke-linecap: round; stroke-linejoin: round; transform-origin: 388.6px 218.905px;" id="ell02glzkr5o" class="animable"></line></g></g></g></g><g id="freepik--Plant--inject-144" class="animable" style="transform-origin: 85.79px 278.475px;"><g id="elbr8i9db0eko" class="animable" style="transform-origin: 85.79px 278.475px;"><polygon points="110.83 356.61 61.35 356.61 66.3 422.59 105.88 422.59 110.83 356.61" style="fill: rgb(153, 153, 153); transform-origin: 86.09px 389.6px;" id="el15cpt4ahfsx" class="animable"></polygon><polygon points="83.19 222.23 83.19 366.63 88.25 361.57 88.25 277.58 103.91 240.57 87.28 271.61 86.66 226.8 83.19 222.23" style="fill: rgb(153, 153, 153); transform-origin: 93.55px 294.43px;" id="elks8a9kkuokj" class="animable"></polygon><g id="el9iilfny24f" class="animable" style="transform-origin: 85.79px 234.77px;"><polygon points="73.35 215.86 44.54 197.62 61.82 216.34 33.98 209.62 53.66 219.22 20.06 219.22 47.9 223.55 15.26 229.79 41.66 228.83 17.18 238.91 43.58 234.59 8.54 258.59 50.3 238.43 28.22 260.51 48.38 247.55 33.98 272.99 55.1 248.51 44.54 270.59 63.27 247.07 63.27 263.39 71.91 243.71 71.91 254.75 80.55 231.71 80.55 243.23 86.66 226.8 88.23 222.59 69.51 197.14 75.27 212.5 69.51 207.7 73.35 215.86" style="fill: rgb(146, 227, 169); transform-origin: 48.385px 235.065px;" id="el55k2tqsp3m7" class="animable"></polygon><polygon points="69.7 261.02 35.87 265.22 61.11 268.71 35.33 281.2 56.63 276.12 30.68 297.46 54.93 283.11 33.68 308.66 53.46 291.15 40.95 314.49 58.6 294.38 46.78 335.18 66.23 293.08 63.2 324.16 70.54 301.35 75.57 330.14 76.34 297.82 82.21 321.58 81.73 291.53 92.09 304.13 86.27 283.44 93.28 291.97 85.32 268.69 92.64 277.58 86.93 261.02 85.46 256.76 54.85 249 69.05 257.21 61.55 257.16 69.7 261.02" style="fill: rgb(146, 227, 169); transform-origin: 61.98px 292.09px;" id="eliyuqbmp0wu" class="animable"></polygon><polygon points="69.7 261.02 35.87 265.22 61.11 268.71 35.33 281.2 56.63 276.12 30.68 297.46 54.93 283.11 33.68 308.66 53.46 291.15 40.95 314.49 58.6 294.38 46.78 335.18 66.23 293.08 63.2 324.16 70.54 301.35 75.57 330.14 76.34 297.82 82.21 321.58 81.73 291.53 92.09 304.13 86.27 283.44 93.28 291.97 85.32 268.69 92.64 277.58 86.93 261.02 85.46 256.76 54.85 249 69.05 257.21 61.55 257.16 69.7 261.02" style="fill: rgb(146, 227, 169); transform-origin: 61.98px 292.09px;" id="elhwhdfitfps" class="animable"></polygon><polygon points="100.53 207.04 145.26 200.75 114.18 213.91 151.45 221 122.45 221.84 163.01 240.19 127.05 230.2 163.04 255.56 131.7 239.98 155.74 265.51 126.23 245.88 155.42 293.99 116.02 246.85 130.62 285.56 113.36 258.91 116.85 297.48 104.73 256.4 105.42 288.81 95.66 250.2 86.75 269.9 87.07 241.43 81.04 254.75 83.19 222.23 76.9 236.13 78.5 212.97 78.91 207.02 115.39 186.54 100.05 201.94 109.63 199.29 100.53 207.04" style="fill: rgb(146, 227, 169); transform-origin: 119.97px 242.01px;" id="elywcog35cr5" class="animable"></polygon><polygon points="94.73 199.16 112.97 170.36 94.25 187.64 100.97 159.8 91.37 179.48 91.37 145.88 87.05 173.72 80.81 141.08 81.77 167.48 71.69 143 76.01 169.4 52.01 134.36 72.17 176.12 50.09 154.04 63.05 174.2 37.61 159.8 62.09 180.92 40.01 170.36 63.53 189.08 47.21 189.08 66.89 197.72 55.85 197.72 78.89 206.36 67.37 206.36 83.79 212.47 88.01 214.04 113.45 195.32 98.09 201.08 102.89 195.32 94.73 199.16" style="fill: rgb(146, 227, 169); transform-origin: 75.53px 174.2px;" id="elpww3vtiix4" class="animable"></polygon></g></g></g><g id="freepik--Character--inject-144" class="animable" style="transform-origin: 251.981px 289.052px;"><g id="ellbhomrncyvg" class="animable" style="transform-origin: 251.981px 289.052px;"><path d="M275.29,225.42c-2.15-12.26-9.96-19.47-9.96-19.47-9.5-5.52-17.01,.61-17.01,.61,0,0-7.51-6.13-17.01-.61,0,0-7.82,7.2-9.96,19.47-2.15,12.26,6.28,17.63,6.28,17.63h41.39s8.43-5.36,6.28-17.63Z" style="fill: rgb(38, 50, 56); stroke: rgb(38, 50, 56); stroke-linecap: round; stroke-linejoin: round; transform-origin: 248.325px 223.348px;" id="el2cv63lpthae" class="animable"></path><path d="M280.66,239.13s17.69-1.6,24.41,9.92c6.72,11.51,25.27,64.29,23.67,67.17-1.6,2.88-13.11,2.88-17.27-.32-4.16-3.2-23.03-35.18-23.03-35.18l-7.77-41.58Z" style="fill: rgb(255, 255, 255); stroke: rgb(38, 50, 56); stroke-linecap: round; stroke-linejoin: round; transform-origin: 304.749px 278.698px;" id="elic535g7x0ph" class="animable"></path><path d="M284.75,253.88s7.49,19.54,9.1,35.33l-5.41-8.49-3.69-26.84Z" style="fill: rgb(38, 50, 56); stroke: rgb(38, 50, 56); stroke-linecap: round; stroke-linejoin: round; transform-origin: 289.3px 271.545px;" id="eljwswzuu6xg" class="animable"></path><path d="M294.04,343.41c-3.11-9.6-12.76-29.11-12.76-30.39s8.09-24.95,8.09-35.5-8.71-38.38-8.71-38.38c0,0-13.31-2.18-16.38-5.66-3.07-3.48-2.58-20.9-2.58-20.9l-13.41-1.58-13.41,1.58s.48,17.42-2.58,20.9c-3.07,3.48-16.38,5.66-16.38,5.66,0,0-8.71,27.83-8.71,38.38s8.09,34.23,8.09,35.5-9.65,20.79-12.76,30.39c-3.11,9.6-5.91,28.15-6.22,36.78l51.98,31.67,51.98-31.67c-.31-8.64-3.11-27.19-6.22-36.78Z" style="fill: rgb(255, 255, 255); stroke: rgb(38, 50, 56); stroke-linecap: round; stroke-linejoin: round; transform-origin: 248.3px 311.43px;" id="eld4p9tr89ii" class="animable"></path><polygon points="245.78 220.68 260.45 223.67 260.12 212.19 245.78 220.68" style="fill: rgb(38, 50, 56); stroke: rgb(38, 50, 56); stroke-linecap: round; stroke-linejoin: round; transform-origin: 253.115px 217.93px;" id="elcb9bmod69q" class="animable"></polygon><path d="M227.61,243.05s13.52-.72,16.28-.52" style="fill: none; stroke: rgb(38, 50, 56); stroke-linecap: round; stroke-linejoin: round; transform-origin: 235.75px 242.772px;" id="el78ldrgd2mir" class="animable"></path><path d="M269,243.05l-14.24-.85s-3.62,.66-3.62,2.96" style="fill: none; stroke: rgb(38, 50, 56); stroke-linecap: round; stroke-linejoin: round; transform-origin: 260.07px 243.68px;" id="el31tf7m63ek1" class="animable"></path><g id="elsdz71gju2qs" class="animable" style="transform-origin: 247.845px 188.097px;"><path d="M268.47,164.46c-1.43-2.1-3.28-3.7-5.97-5.14-2.32-1.24-4.84-2.13-7.39-2.81-8.67-2.33-23.11-.35-28.03,7.98-4.1,6.94-4.41,9.69-3.65,16.15,.76,6.46,4.86,29.06,8.51,32.94,3.65,3.88,11.86,7.1,13.83,7.1h3.95c1.98,0,10.18-3.23,13.83-7.1,3.65-3.88,7.75-26.48,8.51-32.94,.49-4.17,0-8.36-1.58-12.28-.6-1.48-1.25-2.76-2.02-3.9Z" style="fill: rgb(255, 255, 255); stroke: rgb(38, 50, 56); stroke-linecap: round; stroke-linejoin: round; transform-origin: 247.672px 188.141px;" id="elncb06z0osxr" class="animable"></path><path d="M233.84,187.72s4.59,2.21,9.34-.85" style="fill: none; stroke: rgb(38, 50, 56); stroke-linecap: round; stroke-linejoin: round; transform-origin: 238.51px 187.681px;" id="el9t6e2ypusnb" class="animable"></path><path d="M244.2,177.69s-7.65-4.25-11.89,2.55" style="fill: none; stroke: rgb(38, 50, 56); stroke-linecap: round; stroke-linejoin: round; stroke-width: 2px; transform-origin: 238.255px 178.309px;" id="el2etlhydqekn" class="animable"></path><path d="M262.89,187.72s-4.59,2.21-9.34-.85" style="fill: none; stroke: rgb(38, 50, 56); stroke-linecap: round; stroke-linejoin: round; transform-origin: 258.22px 187.681px;" id="els5l8wza3foa" class="animable"></path><path d="M252.52,177.69s7.65-4.25,11.89,2.55" style="fill: none; stroke: rgb(38, 50, 56); stroke-linecap: round; stroke-linejoin: round; stroke-width: 2px; transform-origin: 258.465px 178.309px;" id="el0cmgmgytovw" class="animable"></path><path d="M252.52,181.77s-2.55,7.31-1.53,7.99c1.02,.68,2.38,2.21,1.7,4.08-.68,1.87-2.38,2.38-2.89,2.38" style="fill: none; stroke: rgb(38, 50, 56); stroke-linecap: round; stroke-linejoin: round; transform-origin: 251.337px 188.995px;" id="el8l0lhoyuy5h" class="animable"></path><path d="M250.49,204.71c0,.94-.65,1.7-1.44,1.7s-1.44-.76-1.44-1.7,.65-1.7,1.44-1.7,1.44,.76,1.44,1.7Z" style="fill: rgb(38, 50, 56); transform-origin: 249.05px 204.71px;" id="elqhuc5t75aur" class="animable"></path><path d="M270.5,169.02c-.6-1.56-1.25-2.91-2.02-4.1-1.43-2.21-3.28-3.89-5.97-5.4-2.32-1.3-4.84-2.24-7.39-2.96-7.78-2.2-17.99-.99-24.4,4.19-7.07,5.71-9.13,17.12-6.47,25.47,1.3-.53,2.2-1.91,2.16-3.31-.05-1.91-1.64-3.56-1.59-5.47,.05-1.84,1.56-3.25,2.68-4.71,2.7-3.52,3.68-8.5,7.43-10.87,2.11-1.34,4.75-1.56,7.24-1.42,2.08,.12,4.14,.49,6.23,.52,1.73,.02,3.27-.54,4.99-.67,3.42-.25,6.93,1.08,9.06,3.82,2.64,3.4,3.89,7.82,6.53,10.53,2.64,2.72,.47,4.76-.31,7.65-.67,2.49,2.01,3.97,2.76,4.33,.3-1.91,.52-3.53,.65-4.67,.49-4.38,0-8.79-1.58-12.92Z" style="fill: rgb(38, 50, 56); stroke: rgb(38, 50, 56); stroke-linecap: round; stroke-linejoin: round; transform-origin: 247.697px 171.067px;" id="el312ich8dcj1" class="animable"></path><path d="M224.24,186.21s-2.47-2.23-4.51-.03c-2.04,2.21-.68,6.97,.51,9s6.63,4.42,6.63,4.42l-2.63-13.4Z" style="fill: rgb(255, 255, 255); stroke: rgb(38, 50, 56); stroke-linecap: round; stroke-linejoin: round; transform-origin: 222.776px 192.405px;" id="elp8h25v1f9f" class="animable"></path><path d="M271.63,186.21s2.59-2.1,4.5,.22c1.91,2.32,.3,6.99-1,8.96-1.3,1.97-6.53,3.85-6.53,3.85l3.03-13.04Z" style="fill: rgb(255, 255, 255); stroke: rgb(38, 50, 56); stroke-linecap: round; stroke-linejoin: round; transform-origin: 272.804px 192.289px;" id="el7fo6s00qy4" class="animable"></path></g><path d="M196.31,380.19l60.3,38.71,43.65-38.71c-.24-6.73-2-19.49-4.24-29.33-53.33,6.7-85.41,2.24-95.56,.33-2.2,9.8-3.92,22.34-4.16,29Z" style="fill: rgb(38, 50, 56); stroke: rgb(38, 50, 56); stroke-linecap: round; stroke-linejoin: round; transform-origin: 248.28px 384.88px;" id="elv0x3wk0x6k" class="animable"></path><g id="elg0baxn7kbyr" class="animable" style="transform-origin: 248.22px 297.801px;"><path d="M199.83,354.23c47.78,8.48,85.64,1.71,96.78-.75-.79-3.8-1.66-7.31-2.56-10.07-3.11-9.6-12.76-29.11-12.76-30.39s8.09-24.95,8.09-35.5-8.71-38.38-8.71-38.38c0,0-3.79-.62-7.79-1.73,.22,9.4-.79,42.78-26.65,39.47-25.33-3.23-23.19-30.98-21.89-39.65-4.22,1.22-8.4,1.9-8.4,1.9,0,0-8.71,27.83-8.71,38.38s8.09,34.23,8.09,35.5-9.65,20.79-12.76,30.39c-.95,2.94-1.88,6.73-2.71,10.82Z" style="fill: rgb(146, 227, 169); stroke: rgb(38, 50, 56); stroke-linecap: round; stroke-linejoin: round; transform-origin: 248.22px 297.801px;" id="elsr76uu8ps9l" class="animable"></path><path d="M238.91,352.09s25.09-8.36,27.54-10.19c2.45-1.84,5.81-3.36,5.81-3.36l18.35-3.36-2.14-5.2s-21.72,3.98-27.22,6.73c-5.51,2.75-22.34,15.39-22.34,15.39Z" style="fill: rgb(38, 50, 56); stroke: rgb(38, 50, 56); stroke-linecap: round; stroke-linejoin: round; transform-origin: 264.76px 341.04px;" id="el09e2vhc3eq5u" class="animable"></path><line x1="228.75" y1="311.01" x2="269.25" y2="295.21" style="fill: none; stroke: rgb(38, 50, 56); stroke-linecap: round; stroke-linejoin: round; transform-origin: 249px 303.11px;" id="elt51smlwdhr" class="animable"></line><line x1="266.29" y1="301.13" x2="252.46" y2="306.07" style="fill: none; stroke: rgb(38, 50, 56); stroke-linecap: round; stroke-linejoin: round; transform-origin: 259.375px 303.6px;" id="elqt49tujazi" class="animable"></line></g><path d="M215.92,239.13s-14.17-1.92-24.09,8.32c-9.92,10.24-26.87,37.74-26.87,42.22s12.15,5.44,19.83,1.6c7.68-3.84,23.35-24.31,23.35-24.31l7.77-27.83Z" style="fill: rgb(255, 255, 255); stroke: rgb(38, 50, 56); stroke-linecap: round; stroke-linejoin: round; transform-origin: 190.44px 266.325px;" id="el93x0yqbae04" class="animable"></path><path d="M313.51,300.07c-.99-.05-6.24,2.92-10.85,5.9-5.89,3.81-23.46,16.65-30.82,17.92-7.36,1.28-10.24,.64-10.24,.64,0,0-8.68-3.84-10.92-4.16s-5.96,.79-9,1.3c-3.04,.51-5.07-.25-4.94,.63,.13,.89,.25,2.28,2.28,2.79,2.03,.51,5.07,.25,5.07,.25,0,0,3.04,.13,3.55,.25,.51,.13-19.9,9.5-19.9,9.5,0,0-.25,.51,.63,1.01,.89,.51,10.53-1.49,10.53-1.49l.37,1.11s-13.05,5.7-13.31,6.21c-.25,.51-.13,1.65,.76,1.65s13.28-3.89,13.28-3.89l.28,1.23s-9.88,6.46-10.14,6.84c-.25,.38,0,1.52,.89,1.39,.89-.13,11.4-4.56,11.4-4.56l.43,.78s-5.76,5.56-5.63,6.07c.13,.51,.89,1.14,1.65,.63,.76-.51,9.38-5.2,9.38-5.2,0,0,12.29-4.82,13.05-5.07,.76-.25,9.25-5.58,9.25-5.58,0,0,27.63-3.67,39.28-9.5,11.66-5.83,18.72-7.87,18.87-10.52,.14-2.65-2.65-10.26-2.65-10.26" style="fill: rgb(255, 255, 255); stroke: rgb(38, 50, 56); stroke-linecap: round; stroke-linejoin: round; transform-origin: 277.28px 326.164px;" id="elkl58u673f3n" class="animable"></path><g id="ellc0fh8kilx" class="animable" style="transform-origin: 219.663px 275.981px;"><path d="M170.75,278.76s13.09-7.22,30.24-12.94c17.15-5.72,28.28-9.33,38.66-13.99,10.38-4.66,8.88-3.16,9.33-3.16s13.24,2.71,14.14,2.86c.9,.15,13.99,4.81,13.99,4.81,0,0,.15,1.35-1.05,1.81l-1.2,.45s-.75,1.35-1.96,1.5c-1.2,.15-4.06,.6-4.51,.6s-2.26,.9-4.06,1.35-3.76,.9-4.81,1.05c-1.05,.15-6.32,.45-6.32,.45,0,0-4.21,1.05-8.73,1.2-4.51,.15-10.23-.6-10.23-.6,0,0-44.08,30.69-49.5,33.85-5.42,3.16-10.98,6.47-15.5,5.27-4.51-1.2-7.67-2.71-6.92-6.47,.75-3.76,2.56-11.58,8.42-18.05Z" style="fill: rgb(255, 255, 255); stroke: rgb(38, 50, 56); stroke-linecap: round; stroke-linejoin: round; transform-origin: 219.663px 275.981px;" id="eljjo1olk9pi" class="animable"></path><path d="M251.08,251.68s9.48,1.2,11.88,1.35c2.41,.15,14.14,3.31,14.14,3.31" style="fill: none; stroke: rgb(38, 50, 56); stroke-linecap: round; stroke-linejoin: round; transform-origin: 264.09px 254.01px;" id="elmt2dxbdtn3o" class="animable"></path><polyline points="251.84 255.44 265.98 256.05 274.85 258.6" style="fill: none; stroke: rgb(38, 50, 56); stroke-linecap: round; stroke-linejoin: round; transform-origin: 263.345px 257.02px;" id="elbl2uco8o6qe" class="animable"></polyline><polyline points="251.68 258.9 259.21 259.36 268.38 260.71" style="fill: none; stroke: rgb(38, 50, 56); stroke-linecap: round; stroke-linejoin: round; transform-origin: 260.03px 259.805px;" id="elo5rftslb0lk" class="animable"></polyline></g><g id="elqi0s2w5hwp" class="animable" style="transform-origin: 251.981px 392.957px;"><g id="elg9usnqpy8d" class="animable" style="transform-origin: 311.664px 392.957px;"><path d="M269.93,403.52s13.93-19.63,27.05-28.6c13.12-8.97,40.45-16.54,62.95-7.57,22.5,8.97,38.84,30.84,40.71,33.93,1.87,3.08,.27,10.37-2.41,14.02s-9.37,7.29-12.86,7.29H221.99s-.8-3.08,1.88-5.61c2.68-2.52,18.48-7.85,21.7-9.53,3.21-1.68,6.96-11.78,13.13-13.74s11.25,9.81,11.25,9.81Z" style="fill: rgb(38, 50, 56); stroke: rgb(38, 50, 56); stroke-linecap: round; stroke-linejoin: round; transform-origin: 311.664px 392.957px;" id="elrqn9k2y46zd" class="animable"></path><g id="eljud8uwvwgq8" class="animable" style="transform-origin: 299.994px 405.281px;"><path d="M370.74,422.59H222.43s-.8-3.08,1.86-5.61c2.65-2.52,18.3-7.85,21.49-9.53,3.18-1.68,6.9-11.78,13-13.74,6.1-1.96,11.14,9.81,11.14,9.81,0,0,1.59,2.24,4.25,3.8,2.65,1.56,7.08,3.27,7.96,3.27s19.91-2.49,29.64-7.17c9.73-4.67,23.74-14.02,35.09-15.27,11.35-1.25,20.64,4.36,26.39,8.41" style="fill: rgb(38, 50, 56); stroke: rgb(38, 50, 56); stroke-linecap: round; stroke-linejoin: round; transform-origin: 297.784px 405.281px;" id="elg4oy27krrev" class="animable"></path><path d="M377.67,401.24s-4.57,5.14-8.99,5.92c-4.42,.78-20.35-1.71-25.66-2.96" style="fill: none; stroke: rgb(145, 145, 145); stroke-linecap: round; stroke-linejoin: round; transform-origin: 360.345px 404.274px;" id="elfar7rqzi708" class="animable"></path><path d="M282.12,410.59c.88,0,19.91-2.49,29.64-7.17,9.73-4.67,23.74-14.02,35.09-15.27,11.35-1.25,20.64,4.36,26.39,8.41" style="fill: none; stroke: rgb(145, 145, 145); stroke-linecap: round; stroke-linejoin: round; transform-origin: 327.68px 399.281px;" id="elj0yrcpuswk9" class="animable"></path><path d="M281.8,410.55l-1.25,12.04h-58.12s-.8-3.08,1.86-5.61c2.65-2.52,18.3-7.85,21.49-9.53,3.18-1.68,6.9-11.78,13-13.74,6.1-1.96,11.14,9.81,11.14,9.81,0,0,1.59,2.24,4.25,3.8,2.42,1.42,6.3,2.97,7.64,3.23Z" style="fill: rgb(255, 255, 255); stroke: rgb(38, 50, 56); stroke-linecap: round; stroke-linejoin: round; transform-origin: 252.064px 408.04px;" id="el9godpjhemrv" class="animable"></path></g></g><g id="elcrc6jvdah77" class="animable" style="transform-origin: 196.499px 392.957px;"><path d="M240.19,403.52s-14.58-19.63-28.32-28.6c-13.74-8.97-42.34-16.54-65.89-7.57s-40.65,30.84-42.62,33.93c-1.96,3.08-.28,10.37,2.52,14.02,2.8,3.64,9.81,7.29,13.46,7.29h171.03s.84-3.08-1.96-5.61c-2.8-2.52-19.35-7.85-22.71-9.53-3.36-1.68-7.29-11.78-13.74-13.74-6.45-1.96-11.78,9.81-11.78,9.81Z" style="fill: rgb(38, 50, 56); stroke: rgb(38, 50, 56); stroke-linecap: round; stroke-linejoin: round; transform-origin: 196.499px 392.957px;" id="elma080rfd0os" class="animable"></path><g id="elglzon21g6z" class="animable" style="transform-origin: 208.399px 405.281px;"><path d="M133.63,422.59h156.74s.84-3.08-1.96-5.61c-2.8-2.52-19.35-7.85-22.71-9.53-3.36-1.68-7.29-11.78-13.74-13.74s-11.78,9.81-11.78,9.81c0,0-1.68,2.24-4.49,3.8s-7.48,3.27-8.41,3.27-21.04-2.49-31.32-7.17c-10.29-4.67-25.09-14.02-37.09-15.27-12-1.25-21.82,4.36-27.89,8.41" style="fill: rgb(38, 50, 56); stroke: rgb(38, 50, 56); stroke-linecap: round; stroke-linejoin: round; transform-origin: 210.734px 405.281px;" id="elqr7q0ww2c0a" class="animable"></path><path d="M126.31,401.24s4.83,5.14,9.51,5.92c4.67,.78,21.5-1.71,27.11-2.96" style="fill: none; stroke: rgb(145, 145, 145); stroke-linecap: round; stroke-linejoin: round; transform-origin: 144.62px 404.274px;" id="el3jmxxnbr4v2" class="animable"></path><path d="M227.28,410.59c-.93,0-21.04-2.49-31.32-7.17-10.29-4.67-25.09-14.02-37.09-15.27-12-1.25-21.82,4.36-27.89,8.41" style="fill: none; stroke: rgb(145, 145, 145); stroke-linecap: round; stroke-linejoin: round; transform-origin: 179.13px 399.281px;" id="ele2nur7hnp2" class="animable"></path><path d="M227.62,410.55l1.32,12.04h61.42s.84-3.08-1.96-5.61c-2.8-2.52-19.35-7.85-22.71-9.53-3.36-1.68-7.29-11.78-13.74-13.74s-11.78,9.81-11.78,9.81c0,0-1.68,2.24-4.49,3.8-2.56,1.42-6.66,2.97-8.08,3.23Z" style="fill: rgb(255, 255, 255); stroke: rgb(38, 50, 56); stroke-linecap: round; stroke-linejoin: round; transform-origin: 259.039px 408.04px;" id="elu0xs64gvgtf" class="animable"></path></g></g><path d="M200.39,370.4s19.83,5.57,36.99,22.28" style="fill: none; stroke: rgb(145, 145, 145); stroke-linecap: round; stroke-linejoin: round; transform-origin: 218.885px 381.54px;" id="el1psko996h8z" class="animable"></path><path d="M296.99,374.92s-17.28,7.06-31.76,17.31" style="fill: none; stroke: rgb(145, 145, 145); stroke-linecap: round; stroke-linejoin: round; transform-origin: 281.11px 383.575px;" id="elnm5pssruwsb" class="animable"></path></g></g></g><g id="freepik--Floor--inject-144" class="animable" style="transform-origin: 249.985px 422.59px;"><line x1="22.53" y1="422.59" x2="477.44" y2="422.59" style="fill: none; stroke: rgb(38, 50, 56); stroke-linecap: round; stroke-linejoin: round; transform-origin: 249.985px 422.59px;" id="elnq7h0snqweo" class="animable"></line></g><defs>     <filter id="active" height="200%">         <feMorphology in="SourceAlpha" result="DILATED" operator="dilate" radius="2"></feMorphology>                <feFlood flood-color="#32DFEC" flood-opacity="1" result="PINK"></feFlood>        <feComposite in="PINK" in2="DILATED" operator="in" result="OUTLINE"></feComposite>        <feMerge>            <feMergeNode in="OUTLINE"></feMergeNode>            <feMergeNode in="SourceGraphic"></feMergeNode>        </feMerge>    </filter>    <filter id="hover" height="200%">        <feMorphology in="SourceAlpha" result="DILATED" operator="dilate" radius="2"></feMorphology>                <feFlood flood-color="#ff0000" flood-opacity="0.5" result="PINK"></feFlood>        <feComposite in="PINK" in2="DILATED" operator="in" result="OUTLINE"></feComposite>        <feMerge>            <feMergeNode in="OUTLINE"></feMergeNode>            <feMergeNode in="SourceGraphic"></feMergeNode>        </feMerge>            <feColorMatrix type="matrix" values="0   0   0   0   0                0   1   0   0   0                0   0   0   0   0                0   0   0   1   0 "></feColorMatrix>    </filter></defs></svg>